<svg width="4" height="6" viewBox="0 0 4 6" fill="none" xmlns="http://www.w3.org/2000/svg">
<path d="M1.05438 5.59094C1.15511 5.59094 1.2371 5.55518 1.30738 5.48967L3.6804 3.2256C3.76278 3.14221 3.80572 3.0558 3.80572 2.94858C3.80572 2.84429 3.7659 2.75197 3.6804 2.67449L1.30738 0.407489C1.2371 0.34198 1.15511 0.306213 1.05438 0.306213C0.849795 0.306213 0.691284 0.461101 0.691284 0.657743C0.691284 0.753071 0.733843 0.845424 0.800997 0.913945L2.93936 2.95155L0.800997 4.98321C0.73111 5.05471 0.691284 5.14111 0.691284 5.23941C0.691284 5.43602 0.849795 5.59094 1.05438 5.59094Z" fill="#BDBCBC"/>
</svg>
