<svg width="4" height="6" viewBox="0 0 4 6" fill="none" xmlns="http://www.w3.org/2000/svg">
<path d="M3.32901 5.48967L0.955994 3.22263C0.873614 3.14221 0.831055 3.05283 0.831055 2.94858C0.831055 2.84429 0.873612 2.74896 0.959116 2.67152L3.33213 0.407489C3.39929 0.34198 3.48479 0.306213 3.58239 0.306213C3.78659 0.306213 3.94549 0.461101 3.94549 0.657743C3.94549 0.753071 3.90567 0.845424 3.83539 0.913945L1.70054 2.9456L3.83539 4.98321C3.90567 5.05173 3.94549 5.14111 3.94549 5.23941C3.94549 5.43602 3.78659 5.59094 3.58239 5.59094C3.48479 5.59094 3.39928 5.55518 3.32901 5.48967Z" fill="#717171"/>
</svg>
