<svg width="295" height="30" viewBox="0 0 295 30" fill="none" xmlns="http://www.w3.org/2000/svg">
<g clip-path="url(#clip0_527_3147)">
<line y1="-0.5" x2="71.1688" y2="-0.5" transform="matrix(-0.733255 -0.679953 -0.222164 -0.975009 88.4739 45.6702)" stroke="#D9D9D9"/>
<line y1="-0.5" x2="71.1688" y2="-0.5" transform="matrix(-0.733255 -0.679953 -0.222164 -0.975009 97.1848 45.8557)" stroke="#D9D9D9"/>
<line y1="-0.5" x2="71.1688" y2="-0.5" transform="matrix(-0.733255 -0.679953 -0.222164 -0.975009 105.896 46.0413)" stroke="#D9D9D9"/>
<line y1="-0.5" x2="71.1688" y2="-0.5" transform="matrix(-0.733255 -0.679953 -0.222164 -0.975009 114.607 46.2268)" stroke="#D9D9D9"/>
<line y1="-0.5" x2="71.1688" y2="-0.5" transform="matrix(-0.733255 -0.679953 -0.222164 -0.975009 123.318 46.4124)" stroke="#D9D9D9"/>
<line y1="-0.5" x2="71.1688" y2="-0.5" transform="matrix(-0.733255 -0.679953 -0.222164 -0.975009 132.029 46.5979)" stroke="#D9D9D9"/>
<line y1="-0.5" x2="71.1688" y2="-0.5" transform="matrix(-0.733255 -0.679953 -0.222164 -0.975009 140.74 46.7834)" stroke="#D9D9D9"/>
<line y1="-0.5" x2="71.1688" y2="-0.5" transform="matrix(-0.733255 -0.679953 -0.222164 -0.975009 149.45 46.969)" stroke="#D9D9D9"/>
<line y1="-0.5" x2="71.1688" y2="-0.5" transform="matrix(-0.733255 -0.679953 -0.222164 -0.975009 158.161 47.1545)" stroke="#D9D9D9"/>
<line y1="-0.5" x2="71.1688" y2="-0.5" transform="matrix(-0.733255 -0.679953 -0.222164 -0.975009 166.872 47.3401)" stroke="#D9D9D9"/>
<line y1="-0.5" x2="71.1688" y2="-0.5" transform="matrix(-0.733255 -0.679953 -0.222164 -0.975009 175.583 47.5256)" stroke="#D9D9D9"/>
<line y1="-0.5" x2="71.1688" y2="-0.5" transform="matrix(-0.733255 -0.679953 -0.222164 -0.975009 184.294 47.7112)" stroke="#D9D9D9"/>
<line y1="-0.5" x2="71.1688" y2="-0.5" transform="matrix(-0.733255 -0.679953 -0.222164 -0.975009 193.005 47.8967)" stroke="#D9D9D9"/>
<line y1="-0.5" x2="71.1688" y2="-0.5" transform="matrix(-0.733255 -0.679953 -0.222164 -0.975009 201.716 47.4644)" stroke="#D9D9D9"/>
<line y1="-0.5" x2="71.1688" y2="-0.5" transform="matrix(-0.733255 -0.679953 -0.222164 -0.975009 210.427 47.4644)" stroke="#D9D9D9"/>
<line y1="-0.5" x2="71.1688" y2="-0.5" transform="matrix(-0.733255 -0.679953 -0.222164 -0.975009 219.138 47.4644)" stroke="#D9D9D9"/>
<line y1="-0.5" x2="71.1688" y2="-0.5" transform="matrix(-0.733255 -0.679953 -0.222164 -0.975009 227.849 47.4644)" stroke="#D9D9D9"/>
<line y1="-0.5" x2="71.1688" y2="-0.5" transform="matrix(-0.733255 -0.679953 -0.222164 -0.975009 236.56 47.4644)" stroke="#D9D9D9"/>
<line y1="-0.5" x2="71.1688" y2="-0.5" transform="matrix(-0.733255 -0.679953 -0.222164 -0.975009 245.271 47.4644)" stroke="#D9D9D9"/>
<line y1="-0.5" x2="71.1688" y2="-0.5" transform="matrix(-0.733255 -0.679953 -0.222164 -0.975009 253.982 47.4644)" stroke="#D9D9D9"/>
<line y1="-0.5" x2="71.1688" y2="-0.5" transform="matrix(-0.733255 -0.679953 -0.222164 -0.975009 262.693 47.4644)" stroke="#D9D9D9"/>
<line y1="-0.5" x2="71.1688" y2="-0.5" transform="matrix(-0.733255 -0.679953 -0.222164 -0.975009 271.404 47.4644)" stroke="#D9D9D9"/>
<line y1="-0.5" x2="71.1688" y2="-0.5" transform="matrix(-0.733255 -0.679953 -0.222164 -0.975009 280.115 47.4644)" stroke="#D9D9D9"/>
<line y1="-0.5" x2="71.1688" y2="-0.5" transform="matrix(-0.733255 -0.679953 -0.222164 -0.975009 288.825 47.4644)" stroke="#D9D9D9"/>
<line y1="-0.5" x2="71.1688" y2="-0.5" transform="matrix(-0.733255 -0.679953 -0.222164 -0.975009 297.537 47.4644)" stroke="#D9D9D9"/>
<line y1="-0.5" x2="71.1688" y2="-0.5" transform="matrix(-0.733255 -0.679953 -0.222164 -0.975009 306.185 46.8557)" stroke="#D9D9D9"/>
<line y1="-0.5" x2="71.1688" y2="-0.5" transform="matrix(-0.733255 -0.679953 -0.222164 -0.975009 314.833 46.2471)" stroke="#D9D9D9"/>
<line y1="-0.5" x2="71.1688" y2="-0.5" transform="matrix(-0.733255 -0.679953 -0.222164 -0.975009 323.482 45.6384)" stroke="#D9D9D9"/>
<line y1="-0.5" x2="71.1688" y2="-0.5" transform="matrix(-0.733255 -0.679953 -0.222164 -0.975009 332.13 45.0298)" stroke="#D9D9D9"/>
<line y1="-0.5" x2="71.1688" y2="-0.5" transform="matrix(-0.733255 -0.679953 -0.222164 -0.975009 340.779 44.4211)" stroke="#D9D9D9"/>
<line y1="-0.5" x2="71.1688" y2="-0.5" transform="matrix(-0.733255 -0.679953 -0.222164 -0.975009 79.2891 45.6702)" stroke="#D9D9D9"/>
<line y1="-0.5" x2="71.1688" y2="-0.5" transform="matrix(-0.733255 -0.679953 -0.222164 -0.975009 70.1042 45.6702)" stroke="#D9D9D9"/>
<line y1="-0.5" x2="71.1688" y2="-0.5" transform="matrix(-0.733255 -0.679953 -0.222164 -0.975009 60.9194 45.6702)" stroke="#D9D9D9"/>
<line y1="-0.5" x2="71.1688" y2="-0.5" transform="matrix(-0.733255 -0.679953 -0.222164 -0.975009 51.7346 45.6702)" stroke="#D9D9D9"/>
<line y1="-0.5" x2="71.1688" y2="-0.5" transform="matrix(-0.733255 -0.679953 -0.222164 -0.975009 42.5498 45.6702)" stroke="#D9D9D9"/>
<line y1="-0.5" x2="71.1688" y2="-0.5" transform="matrix(-0.733255 -0.679953 -0.222164 -0.975009 33.365 45.6702)" stroke="#D9D9D9"/>
<line y1="-0.5" x2="71.1688" y2="-0.5" transform="matrix(-0.733255 -0.679953 -0.222164 -0.975009 24.1802 45.6702)" stroke="#D9D9D9"/>
<line y1="-0.5" x2="71.1688" y2="-0.5" transform="matrix(-0.733255 -0.679953 -0.222164 -0.975009 14.9954 45.6702)" stroke="#D9D9D9"/>
<line y1="-0.5" x2="71.1688" y2="-0.5" transform="matrix(-0.733255 -0.679953 -0.222164 -0.975009 5.81055 45.6702)" stroke="#D9D9D9"/>
</g>
<defs>
<clipPath id="clip0_527_3147">
<rect width="29" height="295" fill="white" transform="translate(295 0.464355) rotate(90)"/>
</clipPath>
</defs>
</svg>
