<svg width="907" height="351" viewBox="0 0 907 351" fill="none" xmlns="http://www.w3.org/2000/svg">
<g clip-path="url(#clip0_81_1456)">
<path d="M0 0.885329L906.119 0" stroke="#D9D9D9" stroke-width="1.5" stroke-linecap="round" stroke-dasharray="2 6"/>
<path d="M551.245 337.31V77.5079V68.2545C551.245 58.4751 543.36 50.5479 533.633 50.5479H445.575C435.848 50.5479 427.963 42.6206 427.963 32.8413V-7.62939e-05" stroke="#EDEDED" stroke-width="1.5"/>
<path d="M551.245 337.31V77.5079V68.2545C551.245 58.4751 543.36 50.5479 533.633 50.5479H445.575C435.848 50.5479 427.963 42.6206 427.963 32.8413V-7.62939e-05" stroke="url(#paint0_linear_81_1456)" stroke-width="1.5"/>
<path d="M708.869 131.914H813.658C823.385 131.914 831.27 139.841 831.27 149.621V164.671C831.27 174.451 839.155 182.378 848.882 182.378H907" stroke="#D9D9D9" stroke-width="1.5"/>
<path d="M708.869 131.914H813.658C823.385 131.914 831.27 139.841 831.27 149.621V164.671C831.27 174.451 839.155 182.378 848.882 182.378H907" stroke="url(#paint1_linear_81_1456)" stroke-width="1.5"/>
<path d="M362.8 0.442581V250.548C362.8 260.328 370.685 268.255 380.412 268.255H427.963C437.69 268.255 445.575 276.182 445.575 285.961V344.393" stroke="#EDEDED" stroke-width="1.5"/>
<path d="M362.8 0.442581V250.548C362.8 260.328 370.685 268.255 380.412 268.255H427.963C437.69 268.255 445.575 276.182 445.575 285.961V344.393" stroke="url(#paint2_linear_81_1456)" stroke-width="1.5"/>
<path opacity="0.5" d="M707.108 338.196V-7.62939e-05" stroke="#D9D9D9" stroke-width="1.5" stroke-linecap="round" stroke-dasharray="2 6"/>
<path opacity="0.5" d="M139.132 338.196V-7.62939e-05" stroke="#D9D9D9" stroke-width="1.5" stroke-linecap="round" stroke-dasharray="2 6"/>
<path d="M0 154.933H90.7C100.427 154.933 108.312 147.005 108.312 137.226V122.175C108.312 112.396 116.196 104.469 125.923 104.469H361.919" stroke="#EDEDED" stroke-width="1.5"/>
<path d="M0.440292 154.933H90.7C100.427 154.933 108.312 147.005 108.312 137.226V122.175C108.312 112.396 116.196 104.469 125.923 104.469H361.919" stroke="url(#paint3_linear_81_1456)" stroke-width="1.5"/>
<path d="M140.013 107.125C140.985 107.125 141.774 106.332 141.774 105.354C141.774 104.376 140.985 103.584 140.013 103.584C139.04 103.584 138.251 104.376 138.251 105.354C138.251 106.332 139.04 107.125 140.013 107.125Z" fill="#282828"/>
<mask id="mask0_81_1456" style="mask-type:luminance" maskUnits="userSpaceOnUse" x="134" y="100" width="12" height="11">
<path d="M145.296 105.354C145.296 102.42 142.931 100.042 140.013 100.042C137.095 100.042 134.729 102.42 134.729 105.354C134.729 108.288 137.095 110.666 140.013 110.666C142.931 110.666 145.296 108.288 145.296 105.354Z" fill="white"/>
</mask>
<g mask="url(#mask0_81_1456)">
<path d="M144.636 105.354C144.636 102.787 142.566 100.706 140.013 100.706C137.459 100.706 135.39 102.787 135.39 105.354C135.39 107.921 137.459 110.002 140.013 110.002C142.566 110.002 144.636 107.921 144.636 105.354Z" stroke="#A8A8A8" stroke-opacity="0.2" stroke-width="1.5"/>
</g>
<path d="M551.245 339.966C552.217 339.966 553.006 339.174 553.006 338.196C553.006 337.218 552.217 336.425 551.245 336.425C550.272 336.425 549.483 337.218 549.483 338.196C549.483 339.174 550.272 339.966 551.245 339.966Z" fill="#282828"/>
<mask id="mask1_81_1456" style="mask-type:luminance" maskUnits="userSpaceOnUse" x="545" y="332" width="12" height="12">
<path d="M556.528 338.196C556.528 335.262 554.163 332.884 551.245 332.884C548.327 332.884 545.961 335.262 545.961 338.196C545.961 341.129 548.327 343.508 551.245 343.508C554.163 343.508 556.528 341.129 556.528 338.196Z" fill="white"/>
</mask>
<g mask="url(#mask1_81_1456)">
<path d="M555.868 338.196C555.868 335.629 553.798 333.548 551.245 333.548C548.691 333.548 546.622 335.629 546.622 338.196C546.622 340.763 548.691 342.844 551.245 342.844C553.798 342.844 555.868 340.763 555.868 338.196Z" stroke="#A8A8A8" stroke-opacity="0.2" stroke-width="1.5"/>
</g>
<path d="M707.988 133.685C708.961 133.685 709.75 132.892 709.75 131.914C709.75 130.936 708.961 130.143 707.988 130.143C707.016 130.143 706.227 130.936 706.227 131.914C706.227 132.892 707.016 133.685 707.988 133.685Z" fill="#282828"/>
<mask id="mask2_81_1456" style="mask-type:luminance" maskUnits="userSpaceOnUse" x="702" y="126" width="12" height="12">
<path d="M713.272 131.914C713.272 128.98 710.906 126.602 707.988 126.602C705.07 126.602 702.705 128.98 702.705 131.914C702.705 134.848 705.07 137.226 707.988 137.226C710.906 137.226 713.272 134.848 713.272 131.914Z" fill="white"/>
</mask>
<g mask="url(#mask2_81_1456)">
<path d="M712.611 131.914C712.611 129.347 710.542 127.266 707.988 127.266C705.435 127.266 703.365 129.347 703.365 131.914C703.365 134.481 705.435 136.562 707.988 136.562C710.542 136.562 712.611 134.481 712.611 131.914Z" stroke="#A8A8A8" stroke-opacity="0.2" stroke-width="1.5"/>
</g>
<path d="M429.252 317.904C428.778 317.904 428.4 317.772 428.118 317.507C427.841 317.238 427.702 316.87 427.702 316.402V314.086C427.702 313.623 427.841 313.26 428.118 312.996C428.4 312.727 428.778 312.592 429.252 312.592C429.722 312.592 430.095 312.727 430.372 312.996C430.654 313.265 430.795 313.629 430.795 314.086H430.098C430.098 313.808 430.023 313.593 429.872 313.442C429.722 313.291 429.516 313.215 429.252 313.215C428.985 313.215 428.776 313.291 428.625 313.442C428.475 313.593 428.4 313.808 428.4 314.086V316.402C428.4 316.686 428.475 316.903 428.625 317.054C428.776 317.205 428.985 317.281 429.252 317.281C429.516 317.281 429.722 317.205 429.872 317.054C430.023 316.903 430.098 316.686 430.098 316.402H430.795C430.795 316.866 430.654 317.231 430.372 317.5C430.095 317.769 429.722 317.904 429.252 317.904ZM433.279 317.89C432.805 317.89 432.427 317.753 432.145 317.479C431.868 317.205 431.729 316.823 431.729 316.332V315.439C431.729 314.948 431.868 314.565 432.145 314.292C432.427 314.018 432.805 313.881 433.279 313.881C433.754 313.881 434.129 314.018 434.406 314.292C434.688 314.565 434.829 314.948 434.829 315.439V316.332C434.829 316.823 434.688 317.205 434.406 317.479C434.129 317.753 433.754 317.89 433.279 317.89ZM433.279 317.274C433.542 317.274 433.749 317.2 433.899 317.054C434.054 316.903 434.132 316.683 434.132 316.395V315.375C434.132 315.088 434.054 314.87 433.899 314.724C433.749 314.573 433.542 314.497 433.279 314.497C433.016 314.497 432.807 314.573 432.652 314.724C432.502 314.87 432.427 315.088 432.427 315.375V316.395C432.427 316.683 432.502 316.903 432.652 317.054C432.807 317.2 433.016 317.274 433.279 317.274ZM435.651 317.833V313.938H436.242V314.469H436.263C436.282 314.289 436.348 314.146 436.461 314.037C436.578 313.924 436.726 313.867 436.905 313.867C437.078 313.867 437.223 313.919 437.341 314.023C437.458 314.126 437.543 314.266 437.595 314.441C437.623 314.261 437.695 314.122 437.813 314.023C437.93 313.919 438.078 313.867 438.257 313.867C438.501 313.867 438.698 313.962 438.849 314.15C438.999 314.334 439.074 314.575 439.074 314.873V317.833H438.44V314.88C438.44 314.734 438.402 314.618 438.328 314.533C438.257 314.443 438.16 314.398 438.039 314.398C437.916 314.398 437.82 314.441 437.75 314.526C437.679 314.611 437.644 314.728 437.644 314.88V317.833H437.081V314.88C437.081 314.734 437.045 314.618 436.975 314.533C436.905 314.443 436.808 314.398 436.686 314.398C436.564 314.398 436.465 314.441 436.39 314.526C436.32 314.611 436.285 314.728 436.285 314.88V317.833H435.651ZM439.952 319.108V313.938H440.643V314.688H440.65C440.687 314.434 440.799 314.233 440.988 314.086C441.175 313.94 441.415 313.867 441.706 313.867C442.091 313.867 442.399 313.999 442.629 314.264C442.859 314.523 442.974 314.877 442.974 315.326V316.438C442.974 316.891 442.859 317.25 442.629 317.514C442.399 317.774 442.091 317.904 441.706 317.904C441.419 317.904 441.182 317.831 440.995 317.684C440.806 317.538 440.692 317.337 440.65 317.082H440.636L440.65 317.982V319.108H439.952ZM441.46 317.295C441.718 317.295 441.918 317.228 442.059 317.097C442.204 316.959 442.277 316.74 442.277 316.438V315.333C442.277 315.031 442.204 314.813 442.059 314.681C441.918 314.544 441.718 314.476 441.46 314.476C441.211 314.476 441.013 314.554 440.868 314.71C440.722 314.866 440.65 315.085 440.65 315.368V316.402C440.65 316.686 440.722 316.905 440.868 317.061C441.013 317.217 441.211 317.295 441.46 317.295ZM446.107 317.833C445.754 317.833 445.473 317.73 445.261 317.522C445.05 317.313 444.944 317.037 444.944 316.693V313.3H443.62V312.663H445.642V316.686C445.642 316.842 445.684 316.966 445.768 317.061C445.857 317.151 445.977 317.196 446.128 317.196H447.304V317.833H446.107ZM449.611 317.904C449.146 317.904 448.771 317.765 448.484 317.486C448.202 317.207 448.061 316.827 448.061 316.346V315.425C448.061 314.943 448.202 314.564 448.484 314.285C448.771 314.006 449.146 313.867 449.611 313.867C449.921 313.867 450.192 313.931 450.421 314.058C450.657 314.181 450.837 314.356 450.964 314.582C451.096 314.804 451.161 315.064 451.161 315.361V316.063H448.745V316.402C448.745 316.686 448.822 316.908 448.977 317.068C449.132 317.228 449.344 317.309 449.611 317.309C449.837 317.309 450.023 317.267 450.168 317.182C450.314 317.097 450.4 316.979 450.429 316.827H451.126C451.079 317.158 450.917 317.42 450.64 317.614C450.363 317.808 450.02 317.904 449.611 317.904ZM448.745 315.361V315.545H450.478V315.361C450.478 315.064 450.403 314.835 450.252 314.674C450.103 314.514 449.889 314.434 449.611 314.434C449.335 314.434 449.121 314.514 448.97 314.674C448.821 314.835 448.745 315.064 448.745 315.361ZM454.082 317.833C453.749 317.833 453.483 317.737 453.286 317.543C453.094 317.349 452.997 317.092 452.997 316.771V314.575H451.891V313.938H452.997V312.84H453.695V313.938H455.266V314.575H453.695V316.764C453.695 316.891 453.73 316.995 453.8 317.075C453.876 317.156 453.975 317.196 454.096 317.196H455.23V317.833H454.082ZM457.778 317.904C457.313 317.904 456.937 317.765 456.651 317.486C456.369 317.207 456.228 316.827 456.228 316.346V315.425C456.228 314.943 456.369 314.564 456.651 314.285C456.937 314.006 457.313 313.867 457.778 313.867C458.088 313.867 458.358 313.931 458.588 314.058C458.823 314.181 459.004 314.356 459.13 314.582C459.262 314.804 459.328 315.064 459.328 315.361V316.063H456.911V316.402C456.911 316.686 456.989 316.908 457.144 317.068C457.299 317.228 457.51 317.309 457.778 317.309C458.003 317.309 458.189 317.267 458.334 317.182C458.48 317.097 458.567 316.979 458.595 316.827H459.292C459.246 317.158 459.084 317.42 458.806 317.614C458.529 317.808 458.186 317.904 457.778 317.904ZM456.911 315.361V315.545H458.644V315.361C458.644 315.064 458.569 314.835 458.419 314.674C458.268 314.514 458.055 314.434 457.778 314.434C457.5 314.434 457.287 314.514 457.137 314.674C456.986 314.835 456.911 315.064 456.911 315.361ZM461.607 317.904C461.217 317.904 460.907 317.774 460.678 317.514C460.448 317.25 460.332 316.894 460.332 316.445V315.326C460.332 314.877 460.448 314.523 460.678 314.264C460.907 313.999 461.217 313.867 461.607 313.867C461.894 313.867 462.131 313.94 462.319 314.086C462.512 314.233 462.629 314.434 462.671 314.688L462.657 313.782V312.663H463.355V317.833H462.664V317.075C462.622 317.335 462.507 317.538 462.319 317.684C462.131 317.831 461.894 317.904 461.607 317.904ZM461.847 317.295C462.096 317.295 462.293 317.217 462.439 317.061C462.584 316.905 462.657 316.686 462.657 316.402V315.368C462.657 315.085 462.584 314.866 462.439 314.71C462.293 314.554 462.096 314.476 461.847 314.476C461.589 314.476 461.386 314.544 461.241 314.681C461.1 314.813 461.03 315.031 461.03 315.333V316.438C461.03 316.74 461.1 316.959 461.241 317.097C461.386 317.228 461.589 317.295 461.847 317.295Z" fill="#00A656"/>
<mask id="mask3_81_1456" style="mask-type:luminance" maskUnits="userSpaceOnUse" x="438" y="331" width="15" height="15">
<path d="M452.619 338.196C452.619 334.284 449.465 331.113 445.575 331.113C441.684 331.113 438.53 334.284 438.53 338.196C438.53 342.107 441.684 345.278 445.575 345.278C449.465 345.278 452.619 342.107 452.619 338.196Z" fill="white"/>
</mask>
<g mask="url(#mask3_81_1456)">
<path d="M452.619 338.196C452.619 334.284 449.465 331.113 445.575 331.113C441.684 331.113 438.53 334.284 438.53 338.196C438.53 342.107 441.684 345.278 445.575 345.278C449.465 345.278 452.619 342.107 452.619 338.196Z" fill="url(#paint4_linear_81_1456)"/>
<path d="M451.959 338.196C451.959 334.651 449.101 331.777 445.575 331.777C442.049 331.777 439.191 334.651 439.191 338.196C439.191 341.741 442.049 344.614 445.575 344.614C449.101 344.614 451.959 341.741 451.959 338.196Z" stroke="#A8A8A8" stroke-opacity="0.1" stroke-width="1.5"/>
</g>
<path d="M445.575 341.737C447.52 341.737 449.097 340.152 449.097 338.196C449.097 336.24 447.52 334.654 445.575 334.654C443.629 334.654 442.052 336.24 442.052 338.196C442.052 340.152 443.629 341.737 445.575 341.737Z" fill="#FDFDFD"/>
<path d="M457.903 338.196C457.903 345.041 452.383 350.59 445.575 350.59C438.766 350.59 433.247 345.041 433.247 338.196C433.247 331.35 438.766 325.801 445.575 325.801C452.383 325.801 457.903 331.35 457.903 338.196ZM435.712 338.196C435.712 343.672 440.127 348.111 445.575 348.111C451.022 348.111 455.437 343.672 455.437 338.196C455.437 332.719 451.022 328.28 445.575 328.28C440.127 328.28 435.712 332.719 435.712 338.196Z" fill="#00A656"/>
<path opacity="0.5" d="M905.239 338.638H-14.0893" stroke="#D9D9D9" stroke-width="1.5" stroke-linecap="round" stroke-dasharray="2 6"/>
</g>
<defs>
<linearGradient id="paint0_linear_81_1456" x1="523.506" y1="102.256" x2="544.551" y2="220.827" gradientUnits="userSpaceOnUse">
<stop stop-color="#3292FF" stop-opacity="0"/>
<stop offset="1" stop-color="#3292FF"/>
</linearGradient>
<linearGradient id="paint1_linear_81_1456" x1="844.038" y1="176.181" x2="828.187" y2="177.056" gradientUnits="userSpaceOnUse">
<stop stop-color="#3292FF" stop-opacity="0"/>
<stop offset="1" stop-color="#3292FF"/>
</linearGradient>
<linearGradient id="paint2_linear_81_1456" x1="375.568" y1="237.268" x2="445.906" y2="299.309" gradientUnits="userSpaceOnUse">
<stop stop-color="#3292FF" stop-opacity="0"/>
<stop offset="1" stop-color="#3292FF"/>
</linearGradient>
<linearGradient id="paint3_linear_81_1456" x1="121.08" y1="110.666" x2="105.229" y2="109.79" gradientUnits="userSpaceOnUse">
<stop stop-color="#3292FF" stop-opacity="0"/>
<stop offset="1" stop-color="#3292FF"/>
</linearGradient>
<linearGradient id="paint4_linear_81_1456" x1="445.575" y1="327.25" x2="445.575" y2="349.142" gradientUnits="userSpaceOnUse">
<stop stop-color="#EBEBEB"/>
<stop offset="1" stop-color="#C4C4C4"/>
</linearGradient>
<clipPath id="clip0_81_1456">
<rect width="907" height="350.59" fill="white"/>
</clipPath>
</defs>
</svg>
