<svg width="8" height="8" viewBox="0 0 8 8" fill="none" xmlns="http://www.w3.org/2000/svg">
<path d="M1.12006 5.7045H1.67057V6.1819C1.67057 6.85846 2.03366 7.21255 2.73643 7.21255H6.01603C6.7149 7.21255 7.08189 6.85846 7.08189 6.1819V2.95404C7.08189 2.27748 6.7149 1.9234 6.01603 1.9234H5.46552V1.44916C5.46552 0.772603 5.10243 0.418518 4.39966 0.418518H1.12006C0.417289 0.418518 0.0541992 0.772603 0.0541992 1.44916V4.67386C0.0541992 5.35359 0.417289 5.7045 1.12006 5.7045ZM1.163 5.07538C0.86237 5.07538 0.698414 4.92362 0.698414 4.61697V1.50605C0.698414 1.1994 0.86237 1.05081 1.163 1.05081H4.36062C4.65344 1.05081 4.8213 1.1994 4.8213 1.50605V1.9234H2.73643C2.03366 1.9234 1.67057 2.27748 1.67057 2.95404V5.07538H1.163ZM2.77547 6.58026C2.47874 6.58026 2.3187 6.4285 2.3187 6.12501V3.01093C2.3187 2.70745 2.47874 2.55568 2.77547 2.55568H5.97309C6.27372 2.55568 6.43768 2.70745 6.43768 3.01093V6.12501C6.43768 6.4285 6.27372 6.58026 5.97309 6.58026H2.77547Z" fill="#717171"/>
</svg>
