<svg width="32" height="33" viewBox="0 0 32 33" fill="none" xmlns="http://www.w3.org/2000/svg">
<rect x="3.05176e-05" y="0.0943604" width="32" height="32" rx="8" fill="url(#paint0_linear_490_5059)"/>
<path d="M16 10.0944H14C12.8955 10.0944 12 10.9898 12 12.0944C12 13.1989 12.8955 14.0944 14 14.0944M16 10.0944V14.0944M16 10.0944H18C19.1046 10.0944 20 10.9898 20 12.0944C20 13.1989 19.1046 14.0944 18 14.0944M16 14.0944H14M16 14.0944H18M16 14.0944V18.0944M14 14.0944C12.8955 14.0944 12 14.9898 12 16.0944C12 17.1989 12.8955 18.0944 14 18.0944M18 14.0944C19.1046 14.0944 20 14.9898 20 16.0944C20 17.1989 19.1046 18.0944 18 18.0944C16.8955 18.0944 16 17.1989 16 16.0944C16 14.9898 16.8955 14.0944 18 14.0944ZM16 18.0944H14M16 18.0944V20.0944C16 21.1989 15.1046 22.0944 14 22.0944C12.8955 22.0944 12 21.1989 12 20.0944C12 18.9898 12.8955 18.0944 14 18.0944" stroke="white" stroke-width="2" stroke-linecap="round" stroke-linejoin="round"/>
<defs>
<linearGradient id="paint0_linear_490_5059" x1="3.05176e-05" y1="0.0943604" x2="32" y2="32.8944" gradientUnits="userSpaceOnUse">
<stop stop-color="#7AB8FF"/>
<stop offset="1" stop-color="#3392FF"/>
</linearGradient>
</defs>
</svg>
