<svg width="33" height="33" viewBox="0 0 33 33" fill="none" xmlns="http://www.w3.org/2000/svg">
<rect width="33" height="33" rx="8" fill="url(#paint0_linear_441_935)"/>
<path d="M18.2708 18.625L20.3958 16.5L18.2708 14.375M14.7292 14.375L12.6042 16.5L14.7292 18.625M13.525 22.875H19.475C20.6651 22.875 21.2602 22.875 21.7147 22.6434C22.1146 22.4397 22.4397 22.1146 22.6434 21.7147C22.875 21.2602 22.875 20.6651 22.875 19.475V13.525C22.875 12.3349 22.875 11.7398 22.6434 11.2853C22.4397 10.8854 22.1146 10.5603 21.7147 10.3566C21.2602 10.125 20.6651 10.125 19.475 10.125H13.525C12.3349 10.125 11.7398 10.125 11.2853 10.3566C10.8854 10.5603 10.5603 10.8854 10.3566 11.2853C10.125 11.7398 10.125 12.3349 10.125 13.525V19.475C10.125 20.6651 10.125 21.2602 10.3566 21.7147C10.5603 22.1146 10.8854 22.4397 11.2853 22.6434C11.7398 22.875 12.3349 22.875 13.525 22.875Z" stroke="white" stroke-width="2" stroke-linecap="round" stroke-linejoin="round"/>
<defs>
<linearGradient id="paint0_linear_441_935" x1="0" y1="0" x2="33" y2="33.825" gradientUnits="userSpaceOnUse">
<stop stop-color="#7AB8FF"/>
<stop offset="1" stop-color="#3392FF"/>
</linearGradient>
</defs>
</svg>
