<svg width="22" height="6" viewBox="0 0 22 6" fill="none" xmlns="http://www.w3.org/2000/svg">
<path d="M3.15116 5.45389C4.44492 5.45389 5.49372 4.42958 5.49372 3.16603C5.49372 1.90248 4.44492 0.878174 3.15116 0.878174C1.8574 0.878174 0.808594 1.90248 0.808594 3.16603C0.808594 4.42958 1.8574 5.45389 3.15116 5.45389Z" fill="#ED6A5E"/>
<path d="M3.15113 5.26326C4.33708 5.26326 5.29848 4.32431 5.29848 3.16605C5.29848 2.0078 4.33708 1.06885 3.15113 1.06885C1.96519 1.06885 1.00378 2.0078 1.00378 3.16605C1.00378 4.32431 1.96519 5.26326 3.15113 5.26326Z" stroke="black" stroke-opacity="0.1"/>
<path d="M10.9598 5.45389C12.2535 5.45389 13.3023 4.42958 13.3023 3.16603C13.3023 1.90248 12.2535 0.878174 10.9598 0.878174C9.66599 0.878174 8.61719 1.90248 8.61719 3.16603C8.61719 4.42958 9.66599 5.45389 10.9598 5.45389Z" fill="#F4BD50"/>
<path d="M10.9597 5.26326C12.1457 5.26326 13.1071 4.32431 13.1071 3.16605C13.1071 2.0078 12.1457 1.06885 10.9597 1.06885C9.77378 1.06885 8.81238 2.0078 8.81238 3.16605C8.81238 4.32431 9.77378 5.26326 10.9597 5.26326Z" stroke="black" stroke-opacity="0.1"/>
<path d="M18.7682 5.45389C20.062 5.45389 21.1108 4.42958 21.1108 3.16603C21.1108 1.90248 20.062 0.878174 18.7682 0.878174C17.4745 0.878174 16.4257 1.90248 16.4257 3.16603C16.4257 4.42958 17.4745 5.45389 18.7682 5.45389Z" fill="#61C454"/>
<path d="M18.7682 5.26326C19.9541 5.26326 20.9155 4.32431 20.9155 3.16605C20.9155 2.0078 19.9541 1.06885 18.7682 1.06885C17.5823 1.06885 16.6208 2.0078 16.6208 3.16605C16.6208 4.32431 17.5823 5.26326 18.7682 5.26326Z" stroke="black" stroke-opacity="0.1"/>
</svg>
