<svg width="59" height="5" viewBox="0 0 59 5" fill="none" xmlns="http://www.w3.org/2000/svg">
<path d="M1.72948 4.12733C2.13279 4.12733 2.44242 3.9292 2.6103 3.6086H2.62121V4.07258H3.20023V0.311219H2.62121V1.79699H2.6103C2.44242 1.4738 2.12186 1.2783 1.7244 1.2783C1.01968 1.2783 0.555481 1.82567 0.555481 2.69891V2.7015C0.555481 3.5747 1.01422 4.12733 1.72948 4.12733ZM1.88175 3.6425C1.42534 3.6425 1.14503 3.28536 1.14503 2.7015V2.69891C1.14503 2.12023 1.42808 1.7605 1.88175 1.7605C2.31395 1.7605 2.62357 2.13064 2.62357 2.69891V2.7015C2.62357 3.27236 2.31669 3.6425 1.88175 3.6425ZM3.7925 4.07258H4.36918V2.42261C4.36918 2.03421 4.59873 1.79181 4.96964 1.79181C5.08169 1.79181 5.18321 1.80481 5.2285 1.82308V1.29916C5.18321 1.29134 5.11097 1.2783 5.02859 1.2783C4.69751 1.2783 4.44647 1.47116 4.36136 1.78395H4.34768V1.33042H3.7925V4.07258ZM5.89848 0.90816C6.08783 0.90816 6.23462 0.762195 6.23462 0.584924C6.23462 0.40506 6.08783 0.259094 5.89848 0.259094C5.71185 0.259094 5.56231 0.40506 5.56231 0.584924C5.56231 0.762195 5.71185 0.90816 5.89848 0.90816ZM5.61033 4.07258H6.1866V1.33042H5.61033V4.07258ZM8.27383 4.12733C8.98636 4.12733 9.44823 3.5747 9.44823 2.7015V2.69891C9.44823 1.82567 8.98362 1.2783 8.27929 1.2783C7.88144 1.2783 7.56131 1.4738 7.39303 1.79699H7.37976V0.311219H6.80308V4.07258H7.37976V3.6086H7.39303C7.55857 3.9292 7.87091 4.12733 8.27383 4.12733ZM8.12156 3.6425C7.68389 3.6425 7.37702 3.27236 7.37702 2.7015V2.69891C7.37702 2.13064 7.68662 1.7605 8.12156 1.7605C8.57523 1.7605 8.8583 2.12023 8.8583 2.69891V2.7015C8.8583 3.28536 8.57523 3.6425 8.12156 3.6425ZM11.3859 4.12733C12.0985 4.12733 12.5603 3.5747 12.5603 2.7015V2.69891C12.5603 1.82567 12.0957 1.2783 11.391 1.2783C10.9935 1.2783 10.6734 1.4738 10.5051 1.79699H10.4918V0.311219H9.91518V4.07258H10.4918V3.6086H10.5051C10.6707 3.9292 10.983 4.12733 11.3859 4.12733ZM11.2337 3.6425C10.796 3.6425 10.4891 3.27236 10.4891 2.7015V2.69891C10.4891 2.13064 10.7987 1.7605 11.2337 1.7605C11.6873 1.7605 11.9704 2.12023 11.9704 2.69891V2.7015C11.9704 3.28536 11.6873 3.6425 11.2337 3.6425ZM14.4976 4.12733C15.2105 4.12733 15.672 3.5747 15.672 2.7015V2.69891C15.672 1.82567 15.2078 1.2783 14.5031 1.2783C14.1056 1.2783 13.7851 1.4738 13.6172 1.79699H13.6035V0.311219H13.0273V4.07258H13.6035V3.6086H13.6172C13.7824 3.9292 14.0947 4.12733 14.4976 4.12733ZM14.3458 3.6425C13.9081 3.6425 13.6012 3.27236 13.6012 2.7015V2.69891C13.6012 2.13064 13.9108 1.7605 14.3458 1.7605C14.7994 1.7605 15.0825 2.12023 15.0825 2.69891V2.7015C15.0825 3.28536 14.7994 3.6425 14.3458 3.6425ZM16.1394 4.07258H16.7156V0.311219H16.1394V4.07258ZM18.5065 4.12733C19.187 4.12733 19.6196 3.73111 19.7102 3.29581L19.7157 3.26713H19.1683L19.1605 3.28799C19.0883 3.4939 18.8614 3.66595 18.5198 3.66595C18.0607 3.66595 17.7698 3.36357 17.7593 2.84487H19.7477V2.65456C19.7477 1.83089 19.2643 1.2783 18.4772 1.2783C17.6898 1.2783 17.1826 1.85175 17.1826 2.70932V2.71191C17.1826 3.57733 17.6819 4.12733 18.5065 4.12733ZM18.48 1.73964C18.8564 1.73964 19.1285 1.97163 19.1765 2.44606H17.7671C17.8178 1.98727 18.1063 1.73964 18.48 1.73964ZM20.5243 4.11166C20.7191 4.11166 20.8737 3.96051 20.8737 3.7702C20.8737 3.57733 20.7191 3.42873 20.5243 3.42873C20.3267 3.42873 20.1721 3.57733 20.1721 3.7702C20.1721 3.96051 20.3267 4.11166 20.5243 4.11166ZM22.4807 4.12733C23.1557 4.12733 23.6254 3.70503 23.6871 3.15507L23.6895 3.1368H23.1347L23.1319 3.15766C23.0624 3.45482 22.8356 3.6555 22.4807 3.6555C22.0348 3.6555 21.7385 3.30363 21.7385 2.70409V2.7015C21.7385 2.11501 22.0294 1.75009 22.478 1.75009C22.8543 1.75009 23.0679 1.97686 23.1292 2.24534L23.1347 2.2662H23.6844L23.6816 2.24793C23.6336 1.73183 23.196 1.2783 22.4725 1.2783C21.6717 1.2783 21.1489 1.8283 21.1489 2.69628V2.69891C21.1489 3.57733 21.6612 4.12733 22.4807 4.12733ZM25.3043 4.12733C26.1078 4.12733 26.636 3.58515 26.636 2.7015V2.69628C26.636 1.81785 26.1023 1.2783 25.3015 1.2783C24.5035 1.2783 23.9725 1.82048 23.9725 2.69628V2.7015C23.9725 3.58252 24.4984 4.12733 25.3043 4.12733ZM25.307 3.6555C24.8561 3.6555 24.5624 3.30885 24.5624 2.7015V2.69628C24.5624 2.09678 24.8588 1.75009 25.3015 1.75009C25.7529 1.75009 26.0465 2.09678 26.0465 2.69628V2.7015C26.0465 3.30622 25.7579 3.6555 25.307 3.6555ZM27.0819 4.07258H27.6581V2.37826C27.6581 2.0238 27.9014 1.7605 28.243 1.7605C28.5686 1.7605 28.774 1.96382 28.774 2.28183V4.07258H29.3397V2.35744C29.3397 2.01076 29.5771 1.7605 29.9187 1.7605C30.2604 1.7605 30.4556 1.96645 30.4556 2.32354V4.07258H31.0346V2.18799C31.0346 1.63799 30.6715 1.2783 30.1163 1.2783C29.7161 1.2783 29.385 1.48421 29.2409 1.81785H29.2277C29.1156 1.4738 28.8326 1.2783 28.4456 1.2783C28.0775 1.2783 27.7917 1.46857 27.6718 1.75532H27.6581V1.33042H27.0819V4.07258ZM32.8813 0.311219H32.3503L31.3067 4.9849H31.8404L32.8813 0.311219ZM34.2185 4.12733C34.8803 4.12733 35.3609 3.78324 35.3609 3.28277V3.28018C35.3609 2.88655 35.1419 2.66501 34.5683 2.53468L34.1119 2.43302C33.8101 2.36263 33.6953 2.24793 33.6953 2.07852V2.07592C33.6953 1.85697 33.8901 1.7136 34.1998 1.7136C34.5254 1.7136 34.7178 1.88042 34.7522 2.12023L34.7549 2.13846H35.2969L35.2941 2.10719C35.2648 1.64062 34.8643 1.2783 34.1998 1.2783C33.554 1.2783 33.1163 1.61454 33.1163 2.1046V2.10719C33.1163 2.506 33.3806 2.75626 33.9143 2.87614L34.3735 2.9778C34.6749 3.04819 34.7764 3.14984 34.7764 3.32708V3.32971C34.7764 3.55125 34.5683 3.69203 34.2212 3.69203C33.8663 3.69203 33.6742 3.54343 33.6208 3.29059L33.6153 3.26454H33.0441L33.0468 3.28799C33.1058 3.78846 33.5165 4.12733 34.2185 4.12733ZM36.6341 4.12211C37.005 4.12211 37.3306 3.93443 37.4934 3.63987H37.5039V4.07258H38.0833V2.18277C38.0833 1.6328 37.648 1.2783 36.9624 1.2783C36.271 1.2783 35.8521 1.64062 35.8118 2.11241L35.8091 2.14109H36.3537L36.3592 2.1176C36.4072 1.89865 36.6126 1.74487 36.9464 1.74487C37.3041 1.74487 37.5039 1.92733 37.5039 2.2297V2.43561L36.7407 2.47992C36.0761 2.51904 35.697 2.81097 35.697 3.28799V3.29322C35.697 3.78583 36.0734 4.12211 36.6341 4.12211ZM36.2792 3.28018V3.27495C36.2792 3.04296 36.4713 2.8944 36.818 2.87355L37.5039 2.83183V3.04556C37.5039 3.40269 37.1971 3.67117 36.7914 3.67117C36.4818 3.67117 36.2792 3.51998 36.2792 3.28018ZM39.6954 4.12733C40.3572 4.12733 40.8374 3.78324 40.8374 3.28277V3.28018C40.8374 2.88655 40.6188 2.66501 40.0448 2.53468L39.5884 2.43302C39.287 2.36263 39.1722 2.24793 39.1722 2.07852V2.07592C39.1722 1.85697 39.3671 1.7136 39.6767 1.7136C40.0023 1.7136 40.1944 1.88042 40.2291 2.12023L40.2319 2.13846H40.7734L40.7706 2.10719C40.7414 1.64062 40.3412 1.2783 39.6767 1.2783C39.0305 1.2783 38.5928 1.61454 38.5928 2.1046V2.10719C38.5928 2.506 38.8572 2.75626 39.3909 2.87614L39.85 2.9778C40.1514 3.04819 40.2529 3.14984 40.2529 3.32708V3.32971C40.2529 3.55125 40.0448 3.69203 39.6978 3.69203C39.3429 3.69203 39.1508 3.54343 39.0973 3.29059L39.0922 3.26454H38.521L38.5237 3.28799C38.5823 3.78846 38.9934 4.12733 39.6954 4.12733ZM41.3071 4.07258H41.8838V2.48514C41.8838 2.05766 42.1481 1.7605 42.5455 1.7605C42.9512 1.7605 43.1862 2.03161 43.1862 2.48514V4.07258H43.7625V2.37826C43.7625 1.71619 43.3678 1.2783 42.7673 1.2783C42.348 1.2783 42.0466 1.46335 41.897 1.78136H41.8838V0.311219H41.3071V4.07258ZM45.1477 4.12211C45.519 4.12211 45.8446 3.93443 46.0074 3.63987H46.018V4.07258H46.597V2.18277C46.597 1.6328 46.1621 1.2783 45.4761 1.2783C44.785 1.2783 44.3657 1.64062 44.3259 2.11241L44.3231 2.14109H44.8678L44.8729 2.1176C44.9209 1.89865 45.1266 1.74487 45.4601 1.74487C45.8177 1.74487 46.018 1.92733 46.018 2.2297V2.43561L45.2547 2.47992C44.5902 2.51904 44.2111 2.81097 44.2111 3.28799V3.29322C44.2111 3.78583 44.5875 4.12211 45.1477 4.12211ZM44.7928 3.28018V3.27495C44.7928 3.04296 44.9849 2.8944 45.332 2.87355L46.018 2.83183V3.04556C46.018 3.40269 45.7111 3.67117 45.3055 3.67117C44.9958 3.67117 44.7928 3.51998 44.7928 3.28018ZM47.1787 4.07258H47.7554V0.311219H47.1787V4.07258ZM49.1726 4.12211C49.5436 4.12211 49.8692 3.93443 50.032 3.63987H50.0425V4.07258H50.6219V2.18277C50.6219 1.6328 50.187 1.2783 49.501 1.2783C48.8095 1.2783 48.3906 1.64062 48.3504 2.11241L48.348 2.14109H48.8923L48.8978 2.1176C48.9458 1.89865 49.1512 1.74487 49.485 1.74487C49.8426 1.74487 50.0425 1.92733 50.0425 2.2297V2.43561L49.2792 2.47992C48.6147 2.51904 48.236 2.81097 48.236 3.28799V3.29322C48.236 3.78583 48.612 4.12211 49.1726 4.12211ZM48.8177 3.28018V3.27495C48.8177 3.04296 49.0098 2.8944 49.3569 2.87355L50.0425 2.83183V3.04556C50.0425 3.40269 49.7356 3.67117 49.33 3.67117C49.0204 3.67117 48.8177 3.51998 48.8177 3.28018ZM51.1021 4.07258H53.2776V3.62686H51.799V3.61642L53.2616 1.71619V1.33042H51.1131V1.77877H52.6022V1.78918L51.1021 3.71026V4.07258ZM54.6171 4.12211C54.988 4.12211 55.3137 3.93443 55.4765 3.63987H55.4874V4.07258H56.0664V2.18277C56.0664 1.6328 55.6315 1.2783 54.9455 1.2783C54.2544 1.2783 53.8351 1.64062 53.7953 2.11241L53.7926 2.14109H54.3368L54.3423 2.1176C54.3903 1.89865 54.5961 1.74487 54.9295 1.74487C55.2871 1.74487 55.4874 1.92733 55.4874 2.2297V2.43561L54.7241 2.47992C54.0596 2.51904 53.6805 2.81097 53.6805 3.28799V3.29322C53.6805 3.78583 54.0569 4.12211 54.6171 4.12211ZM54.2622 3.28018V3.27495C54.2622 3.04296 54.4543 2.8944 54.8014 2.87355L55.4874 2.83183V3.04556C55.4874 3.40269 55.1805 3.67117 54.7749 3.67117C54.4653 3.67117 54.2622 3.51998 54.2622 3.28018ZM56.6271 4.07258H57.2033V2.42261C57.2033 2.03421 57.4329 1.79181 57.8038 1.79181C57.9159 1.79181 58.0174 1.80481 58.0627 1.82308V1.29916C58.0174 1.29134 57.9455 1.2783 57.8628 1.2783C57.5317 1.2783 57.281 1.47116 57.1955 1.78395H57.1822V1.33042H56.6271V4.07258Z" fill="#4C4C4C"/>
</svg>
