<svg width="49" height="232" viewBox="0 0 49 232" fill="none" xmlns="http://www.w3.org/2000/svg">
<path d="M1 1.59436L1 230.594" stroke="#D9D9D9" stroke-width="1.5" stroke-linecap="round" stroke-dasharray="2 6"/>
<g clip-path="url(#clip0_490_5436)">
<line y1="-0.5" x2="71.1688" y2="-0.5" transform="matrix(0.679953 -0.733255 0.975009 -0.222164 0.999878 278.633)" stroke="#D9D9D9"/>
<line y1="-0.5" x2="71.1688" y2="-0.5" transform="matrix(0.679953 -0.733255 0.975009 -0.222164 0.999878 269.779)" stroke="#D9D9D9"/>
<line y1="-0.5" x2="71.1688" y2="-0.5" transform="matrix(0.679953 -0.733255 0.975009 -0.222164 0.999878 261.263)" stroke="#D9D9D9"/>
<line y1="-0.5" x2="71.1688" y2="-0.5" transform="matrix(0.679953 -0.733255 0.975009 -0.222164 0.999878 252.078)" stroke="#D9D9D9"/>
<line y1="-0.5" x2="71.1688" y2="-0.5" transform="matrix(0.679953 -0.733255 0.975009 -0.222164 0.999878 242.894)" stroke="#D9D9D9"/>
<line y1="-0.5" x2="71.1688" y2="-0.5" transform="matrix(0.679953 -0.733255 0.975009 -0.222164 0.999878 233.709)" stroke="#D9D9D9"/>
<line y1="-0.5" x2="71.1688" y2="-0.5" transform="matrix(0.679953 -0.733255 0.975009 -0.222164 0.999878 224.524)" stroke="#D9D9D9"/>
<line y1="-0.5" x2="71.1688" y2="-0.5" transform="matrix(0.679953 -0.733255 0.975009 -0.222164 0.999878 215.339)" stroke="#D9D9D9"/>
<line y1="-0.5" x2="71.1688" y2="-0.5" transform="matrix(0.679953 -0.733255 0.975009 -0.222164 0.999878 206.154)" stroke="#D9D9D9"/>
<line y1="-0.5" x2="71.1688" y2="-0.5" transform="matrix(0.679953 -0.733255 0.975009 -0.222164 0.999878 196.969)" stroke="#D9D9D9"/>
<line y1="-0.5" x2="71.1688" y2="-0.5" transform="matrix(0.679953 -0.733255 0.975009 -0.222164 0.999878 187.785)" stroke="#D9D9D9"/>
<line y1="-0.5" x2="71.1688" y2="-0.5" transform="matrix(0.679953 -0.733255 0.975009 -0.222164 0.999878 178.6)" stroke="#D9D9D9"/>
<line y1="-0.5" x2="71.1688" y2="-0.5" transform="matrix(0.679953 -0.733255 0.975009 -0.222164 0.999878 169.415)" stroke="#D9D9D9"/>
<line y1="-0.5" x2="71.1688" y2="-0.5" transform="matrix(0.679953 -0.733255 0.975009 -0.222164 0.999878 160.23)" stroke="#D9D9D9"/>
<line y1="-0.5" x2="71.1688" y2="-0.5" transform="matrix(0.679953 -0.733255 0.975009 -0.222164 0.999878 151.045)" stroke="#D9D9D9"/>
<line y1="-0.5" x2="71.1688" y2="-0.5" transform="matrix(0.679953 -0.733255 0.975009 -0.222164 0.999878 141.861)" stroke="#D9D9D9"/>
<line y1="-0.5" x2="71.1688" y2="-0.5" transform="matrix(0.679953 -0.733255 0.975009 -0.222164 0.999878 132.676)" stroke="#D9D9D9"/>
<line y1="-0.5" x2="71.1688" y2="-0.5" transform="matrix(0.679953 -0.733255 0.975009 -0.222164 0.999878 123.491)" stroke="#D9D9D9"/>
<line y1="-0.5" x2="71.1688" y2="-0.5" transform="matrix(0.679953 -0.733255 0.975009 -0.222164 0.999878 114.306)" stroke="#D9D9D9"/>
<line y1="-0.5" x2="71.1688" y2="-0.5" transform="matrix(0.679953 -0.733255 0.975009 -0.222164 0.999878 105.121)" stroke="#D9D9D9"/>
<line y1="-0.5" x2="71.1688" y2="-0.5" transform="matrix(0.679953 -0.733255 0.975009 -0.222164 0.999878 95.9365)" stroke="#D9D9D9"/>
<line y1="-0.5" x2="71.1688" y2="-0.5" transform="matrix(0.679953 -0.733255 0.975009 -0.222164 0.999878 86.7517)" stroke="#D9D9D9"/>
<line y1="-0.5" x2="71.1688" y2="-0.5" transform="matrix(0.679953 -0.733255 0.975009 -0.222164 0.999878 77.5669)" stroke="#D9D9D9"/>
<line y1="-0.5" x2="71.1688" y2="-0.5" transform="matrix(0.679953 -0.733255 0.975009 -0.222164 0.999878 68.3821)" stroke="#D9D9D9"/>
<line y1="-0.5" x2="71.1688" y2="-0.5" transform="matrix(0.679953 -0.733255 0.975009 -0.222164 0.999878 59.1973)" stroke="#D9D9D9"/>
<line y1="-0.5" x2="71.1688" y2="-0.5" transform="matrix(0.679953 -0.733255 0.975009 -0.222164 0.999878 50.0125)" stroke="#D9D9D9"/>
<line y1="-0.5" x2="71.1688" y2="-0.5" transform="matrix(0.679953 -0.733255 0.975009 -0.222164 0.999878 40.8276)" stroke="#D9D9D9"/>
<line y1="-0.5" x2="71.1688" y2="-0.5" transform="matrix(0.679953 -0.733255 0.975009 -0.222164 0.999878 31.6428)" stroke="#D9D9D9"/>
<line y1="-0.5" x2="71.1688" y2="-0.5" transform="matrix(0.679953 -0.733255 0.975009 -0.222164 0.999878 22.458)" stroke="#D9D9D9"/>
<line y1="-0.5" x2="71.1688" y2="-0.5" transform="matrix(0.679953 -0.733255 0.975009 -0.222164 0.999878 13.2732)" stroke="#D9D9D9"/>
<line y1="-0.5" x2="71.1688" y2="-0.5" transform="matrix(0.679953 -0.733255 0.975009 -0.222164 0.999878 4.08838)" stroke="#D9D9D9"/>
</g>
<defs>
<clipPath id="clip0_490_5436">
<rect width="48.0001" height="229" fill="white" transform="translate(49 230.594) rotate(-180)"/>
</clipPath>
</defs>
</svg>
