<svg width="4" height="5" viewBox="0 0 4 5" fill="none" xmlns="http://www.w3.org/2000/svg">
<path d="M1.159 4.42034H3.37819C3.68468 4.42034 3.83577 4.27289 3.83577 3.94668V2.27322C3.83577 1.97832 3.712 1.82862 3.45588 1.80406V1.25219C3.45588 0.403202 2.87726 -0.00567627 2.26858 -0.00567627C1.65991 -0.00567627 1.08131 0.403202 1.08131 1.25219V1.81077C0.84354 1.8465 0.701416 1.99395 0.701416 2.27322V3.94668C0.701416 4.27289 0.85251 4.42034 1.159 4.42034ZM1.52054 1.21196C1.52054 0.691396 1.85902 0.405413 2.26858 0.405413C2.6758 0.405413 3.01665 0.691396 3.01665 1.21196V1.7996L1.52054 1.80181V1.21196Z" fill="#9C9C9C"/>
</svg>
