<svg width="36" height="264" viewBox="0 0 36 264" fill="none" xmlns="http://www.w3.org/2000/svg">
<path d="M0.92 2.4C0.92 1.85067 1.07467 1.416 1.384 1.096C1.69867 0.776 2.12 0.616 2.648 0.616L5.192 0.616C5.72 0.616 6.13867 0.776 6.448 1.096C6.76267 1.416 6.92 1.85067 6.92 2.4C6.92 2.94933 6.76267 3.384 6.448 3.704C6.13867 4.024 5.72 4.184 5.192 4.184L2.648 4.184C2.30133 4.184 1.99733 4.10933 1.736 3.96C1.48 3.816 1.28 3.61067 1.136 3.344C0.992 3.07733 0.92 2.76267 0.92 2.4ZM1.6 2.4C1.6 2.70933 1.696 2.95733 1.888 3.144C2.08533 3.33067 2.33867 3.424 2.648 3.424L5.192 3.424C5.50133 3.424 5.752 3.33067 5.944 3.144C6.14133 2.95733 6.24 2.70933 6.24 2.4C6.24 2.09067 6.14133 1.84267 5.944 1.656C5.752 1.46933 5.50133 1.376 5.192 1.376L2.648 1.376C2.33867 1.376 2.08533 1.46933 1.888 1.656C1.696 1.84267 1.6 2.09067 1.6 2.4ZM3.472 2.4C3.472 2.25067 3.512 2.13067 3.592 2.04C3.67733 1.95467 3.79467 1.912 3.944 1.912C4.09333 1.912 4.20533 1.95467 4.28 2.04C4.36 2.13067 4.4 2.25067 4.4 2.4C4.4 2.54933 4.36 2.66933 4.28 2.76C4.20533 2.85067 4.09333 2.896 3.944 2.896C3.79467 2.896 3.67733 2.85067 3.592 2.76C3.512 2.66933 3.472 2.54933 3.472 2.4Z" fill="#A8A8A8"/>
<path d="M0.92 44.2C0.92 43.6507 1.07467 43.216 1.384 42.896C1.69867 42.576 2.12 42.416 2.648 42.416L5.192 42.416C5.72 42.416 6.13867 42.576 6.448 42.896C6.76267 43.216 6.92 43.6507 6.92 44.2C6.92 44.7493 6.76267 45.184 6.448 45.504C6.13867 45.824 5.72 45.984 5.192 45.984L2.648 45.984C2.30133 45.984 1.99733 45.9093 1.736 45.76C1.48 45.616 1.28 45.4107 1.136 45.144C0.992 44.8773 0.92 44.5627 0.92 44.2ZM1.6 44.2C1.6 44.5093 1.696 44.7573 1.888 44.944C2.08533 45.1307 2.33867 45.224 2.648 45.224L5.192 45.224C5.50133 45.224 5.752 45.1307 5.944 44.944C6.14133 44.7573 6.24 44.5093 6.24 44.2C6.24 43.8907 6.14133 43.6427 5.944 43.456C5.752 43.2693 5.50133 43.176 5.192 43.176L2.648 43.176C2.33867 43.176 2.08533 43.2693 1.888 43.456C1.696 43.6427 1.6 43.8907 1.6 44.2ZM3.472 44.2C3.472 44.0507 3.512 43.9307 3.592 43.84C3.67733 43.7547 3.79467 43.712 3.944 43.712C4.09333 43.712 4.20533 43.7547 4.28 43.84C4.36 43.9307 4.4 44.0507 4.4 44.2C4.4 44.3493 4.36 44.4693 4.28 44.56C4.20533 44.6507 4.09333 44.696 3.944 44.696C3.79467 44.696 3.67733 44.6507 3.592 44.56C3.512 44.4693 3.472 44.3493 3.472 44.2ZM0.92 48.8369C0.92 48.6342 0.981333 48.4689 1.104 48.3409C1.22667 48.2182 1.384 48.1569 1.576 48.1569C1.77867 48.1569 1.944 48.2182 2.072 48.3409C2.2 48.4689 2.264 48.6342 2.264 48.8369C2.264 49.0395 2.2 49.2022 2.072 49.3249C1.944 49.4529 1.77867 49.5169 1.576 49.5169C1.384 49.5169 1.22667 49.4529 1.104 49.3249C0.981333 49.2022 0.92 49.0395 0.92 48.8369ZM1 51.7857L1.72 51.7857L1.72 53.3457L6.128 53.3457L4.96 51.7777L5.856 51.7777L6.84 53.1057L6.84 54.1377L1.72 54.1377L1.72 55.4177L0.999999 55.4177L1 51.7857Z" fill="#A8A8A8"/>
<path d="M0.92 96C0.92 95.4507 1.07467 95.016 1.384 94.696C1.69867 94.376 2.12 94.216 2.648 94.216L5.192 94.216C5.72 94.216 6.13867 94.376 6.448 94.696C6.76267 95.016 6.92 95.4507 6.92 96C6.92 96.5493 6.76267 96.984 6.448 97.304C6.13867 97.624 5.72 97.784 5.192 97.784L2.648 97.784C2.30133 97.784 1.99733 97.7093 1.736 97.56C1.48 97.416 1.28 97.2107 1.136 96.944C0.992 96.6773 0.92 96.3627 0.92 96ZM1.6 96C1.6 96.3093 1.696 96.5573 1.888 96.744C2.08533 96.9307 2.33867 97.024 2.648 97.024L5.192 97.024C5.50133 97.024 5.752 96.9307 5.944 96.744C6.14133 96.5573 6.24 96.3093 6.24 96C6.24 95.6907 6.14133 95.4427 5.944 95.256C5.752 95.0693 5.50133 94.976 5.192 94.976L2.648 94.976C2.33867 94.976 2.08533 95.0693 1.888 95.256C1.696 95.4427 1.6 95.6907 1.6 96ZM3.472 96C3.472 95.8507 3.512 95.7307 3.592 95.64C3.67733 95.5547 3.79467 95.512 3.944 95.512C4.09333 95.512 4.20533 95.5547 4.28 95.64C4.36 95.7307 4.4 95.8507 4.4 96C4.4 96.1493 4.36 96.2693 4.28 96.36C4.20533 96.4507 4.09333 96.496 3.944 96.496C3.79467 96.496 3.67733 96.4507 3.592 96.36C3.512 96.2693 3.472 96.1493 3.472 96ZM0.92 100.637C0.92 100.434 0.981333 100.269 1.104 100.141C1.22667 100.018 1.384 99.9569 1.576 99.9569C1.77867 99.9569 1.944 100.018 2.072 100.141C2.2 100.269 2.264 100.434 2.264 100.637C2.264 100.84 2.2 101.002 2.072 101.125C1.944 101.253 1.77867 101.317 1.576 101.317C1.384 101.317 1.22667 101.253 1.104 101.125C0.981333 101.002 0.92 100.84 0.92 100.637ZM1 103.538L1.728 103.538L3.824 105.522C4.09067 105.778 4.33333 105.959 4.552 106.066C4.776 106.178 4.99467 106.234 5.208 106.234C5.512 106.234 5.75467 106.146 5.936 105.97C6.12267 105.794 6.216 105.556 6.216 105.258C6.216 104.948 6.12267 104.703 5.936 104.522C5.74933 104.34 5.496 104.25 5.176 104.25L5.176 103.458C5.70933 103.468 6.13333 103.636 6.448 103.962C6.76267 104.292 6.92 104.724 6.92 105.258C6.92 105.802 6.76533 106.234 6.456 106.554C6.14667 106.879 5.73333 107.042 5.216 107.042C4.93333 107.042 4.63733 106.967 4.328 106.818C4.024 106.668 3.688 106.415 3.32 106.058L1.72 104.506L1.72 107.114L0.999999 107.114L1 103.538Z" fill="#A8A8A8"/>
<path d="M0.92 147.8C0.92 147.251 1.07467 146.816 1.384 146.496C1.69867 146.176 2.12 146.016 2.648 146.016L5.192 146.016C5.72 146.016 6.13867 146.176 6.448 146.496C6.76267 146.816 6.92 147.251 6.92 147.8C6.92 148.349 6.76267 148.784 6.448 149.104C6.13867 149.424 5.72 149.584 5.192 149.584L2.648 149.584C2.30133 149.584 1.99733 149.509 1.736 149.36C1.48 149.216 1.28 149.011 1.136 148.744C0.992 148.477 0.92 148.163 0.92 147.8ZM1.6 147.8C1.6 148.109 1.696 148.357 1.888 148.544C2.08533 148.731 2.33867 148.824 2.648 148.824L5.192 148.824C5.50133 148.824 5.752 148.731 5.944 148.544C6.14133 148.357 6.24 148.109 6.24 147.8C6.24 147.491 6.14133 147.243 5.944 147.056C5.752 146.869 5.50133 146.776 5.192 146.776L2.648 146.776C2.33867 146.776 2.08533 146.869 1.888 147.056C1.696 147.243 1.6 147.491 1.6 147.8ZM3.472 147.8C3.472 147.651 3.512 147.531 3.592 147.44C3.67733 147.355 3.79467 147.312 3.944 147.312C4.09333 147.312 4.20533 147.355 4.28 147.44C4.36 147.531 4.4 147.651 4.4 147.8C4.4 147.949 4.36 148.069 4.28 148.16C4.20533 148.251 4.09333 148.296 3.944 148.296C3.79467 148.296 3.67733 148.251 3.592 148.16C3.512 148.069 3.472 147.949 3.472 147.8ZM0.92 152.437C0.92 152.234 0.981333 152.069 1.104 151.941C1.22667 151.818 1.384 151.757 1.576 151.757C1.77867 151.757 1.944 151.818 2.072 151.941C2.2 152.069 2.264 152.234 2.264 152.437C2.264 152.64 2.2 152.802 2.072 152.925C1.944 153.053 1.77867 153.117 1.576 153.117C1.384 153.117 1.22667 153.053 1.104 152.925C0.981333 152.802 0.92 152.64 0.92 152.437ZM0.919999 156.994C0.92 156.444 1.06933 156.01 1.368 155.69C1.672 155.37 2.08267 155.21 2.6 155.21L2.6 156.002C2.296 156.002 2.056 156.09 1.88 156.266C1.70933 156.447 1.624 156.692 1.624 157.002C1.624 157.306 1.70933 157.548 1.88 157.73C2.056 157.911 2.296 158.002 2.6 158.002L3.008 158.002C3.312 158.002 3.552 157.911 3.728 157.73C3.90933 157.554 4 157.311 4 157.002L4 156.346L4.664 156.346L6.128 157.754L6.128 155.386L6.84 155.386L6.84 158.642L6.12 158.642L4.68 157.25C4.63733 157.724 4.46667 158.1 4.168 158.378C3.87467 158.655 3.488 158.794 3.008 158.794L2.6 158.794C2.08267 158.794 1.672 158.631 1.368 158.306C1.06933 157.986 0.919999 157.548 0.919999 156.994Z" fill="#A8A8A8"/>
<path d="M0.92 199.6C0.92 199.051 1.07467 198.616 1.384 198.296C1.69867 197.976 2.12 197.816 2.648 197.816L5.192 197.816C5.72 197.816 6.13867 197.976 6.448 198.296C6.76267 198.616 6.92 199.051 6.92 199.6C6.92 200.149 6.76267 200.584 6.448 200.904C6.13867 201.224 5.72 201.384 5.192 201.384L2.648 201.384C2.30133 201.384 1.99733 201.309 1.736 201.16C1.48 201.016 1.28 200.811 1.136 200.544C0.992 200.277 0.92 199.963 0.92 199.6ZM1.6 199.6C1.6 199.909 1.696 200.157 1.888 200.344C2.08533 200.531 2.33867 200.624 2.648 200.624L5.192 200.624C5.50133 200.624 5.752 200.531 5.944 200.344C6.14133 200.157 6.24 199.909 6.24 199.6C6.24 199.291 6.14133 199.043 5.944 198.856C5.752 198.669 5.50133 198.576 5.192 198.576L2.648 198.576C2.33867 198.576 2.08533 198.669 1.888 198.856C1.696 199.043 1.6 199.291 1.6 199.6ZM3.472 199.6C3.472 199.451 3.512 199.331 3.592 199.24C3.67733 199.155 3.79467 199.112 3.944 199.112C4.09333 199.112 4.20533 199.155 4.28 199.24C4.36 199.331 4.4 199.451 4.4 199.6C4.4 199.749 4.36 199.869 4.28 199.96C4.20533 200.051 4.09333 200.096 3.944 200.096C3.79467 200.096 3.67733 200.051 3.592 199.96C3.512 199.869 3.472 199.749 3.472 199.6ZM0.92 204.237C0.92 204.034 0.981333 203.869 1.104 203.741C1.22667 203.618 1.384 203.557 1.576 203.557C1.77867 203.557 1.944 203.618 2.072 203.741C2.2 203.869 2.264 204.034 2.264 204.237C2.264 204.44 2.2 204.602 2.072 204.725C1.944 204.853 1.77867 204.917 1.576 204.917C1.384 204.917 1.22667 204.853 1.104 204.725C0.981333 204.602 0.92 204.44 0.92 204.237ZM0.999999 209.642L2.248 209.642L2.248 207.01L3.456 207.01L6.84 209.146L6.84 210.042L3.272 207.794L2.96 207.794L2.96 209.642L4.36 209.642L4.36 210.434L0.999999 210.434L0.999999 209.642Z" fill="#A8A8A8"/>
<path d="M0.92 251.4C0.92 250.851 1.07467 250.416 1.384 250.096C1.69867 249.776 2.12 249.616 2.648 249.616L5.192 249.616C5.72 249.616 6.13867 249.776 6.448 250.096C6.76267 250.416 6.92 250.851 6.92 251.4C6.92 251.949 6.76267 252.384 6.448 252.704C6.13867 253.024 5.72 253.184 5.192 253.184L2.648 253.184C2.30133 253.184 1.99733 253.109 1.736 252.96C1.48 252.816 1.28 252.611 1.136 252.344C0.992 252.077 0.92 251.763 0.92 251.4ZM1.6 251.4C1.6 251.709 1.696 251.957 1.888 252.144C2.08533 252.331 2.33867 252.424 2.648 252.424L5.192 252.424C5.50133 252.424 5.752 252.331 5.944 252.144C6.14133 251.957 6.24 251.709 6.24 251.4C6.24 251.091 6.14133 250.843 5.944 250.656C5.752 250.469 5.50133 250.376 5.192 250.376L2.648 250.376C2.33867 250.376 2.08533 250.469 1.888 250.656C1.696 250.843 1.6 251.091 1.6 251.4ZM3.472 251.4C3.472 251.251 3.512 251.131 3.592 251.04C3.67733 250.955 3.79467 250.912 3.944 250.912C4.09333 250.912 4.20533 250.955 4.28 251.04C4.36 251.131 4.4 251.251 4.4 251.4C4.4 251.549 4.36 251.669 4.28 251.76C4.20533 251.851 4.09333 251.896 3.944 251.896C3.79467 251.896 3.67733 251.851 3.592 251.76C3.512 251.669 3.472 251.549 3.472 251.4ZM0.92 256.037C0.92 255.834 0.981333 255.669 1.104 255.541C1.22667 255.418 1.384 255.357 1.576 255.357C1.77867 255.357 1.944 255.418 2.072 255.541C2.2 255.669 2.264 255.834 2.264 256.037C2.264 256.24 2.2 256.402 2.072 256.525C1.944 256.653 1.77867 256.717 1.576 256.717C1.384 256.717 1.22667 256.653 1.104 256.525C0.981333 256.402 0.92 256.24 0.92 256.037ZM0.919999 260.634C0.92 260.084 1.06933 259.65 1.368 259.33C1.672 259.01 2.08267 258.85 2.6 258.85L2.6 259.642C2.296 259.642 2.056 259.73 1.88 259.906C1.70933 260.087 1.624 260.33 1.624 260.634C1.624 260.943 1.712 261.186 1.888 261.362C2.064 261.543 2.304 261.634 2.608 261.634L2.976 261.634C3.28 261.634 3.52 261.546 3.696 261.37C3.872 261.199 3.96 260.964 3.96 260.666L3.96 259.05L6.84 259.05L6.84 262.218L6.12 262.218L6.12 259.786L4.672 259.802L4.672 260.706C4.672 261.25 4.52267 261.671 4.224 261.97C3.93067 262.274 3.51467 262.426 2.976 262.426L2.608 262.426C2.08533 262.426 1.672 262.263 1.368 261.938C1.06933 261.618 0.919999 261.183 0.919999 260.634Z" fill="#A8A8A8"/>
<rect opacity="0.1" width="72" height="8" rx="2" transform="matrix(4.37114e-08 1 1 -4.37114e-08 15 -6.11959e-07)" fill="#727272"/>
<rect opacity="0.1" width="190" height="8" rx="2" transform="matrix(4.37114e-08 1 1 -4.37114e-08 15 74)" fill="#727272"/>
<rect opacity="0.1" width="190" height="8" rx="2" transform="matrix(4.37114e-08 1 1 -4.37114e-08 28 -3.08756e-06)" fill="#727272"/>
<rect opacity="0.1" width="72" height="8" rx="2" transform="matrix(4.37114e-08 1 1 -4.37114e-08 28 192)" fill="#727272"/>
</svg>
