<svg width="35" height="264" viewBox="0 0 35 264" fill="none" xmlns="http://www.w3.org/2000/svg">
<path d="M28.92 2.4C28.92 1.85067 29.0747 1.416 29.384 1.096C29.6987 0.776001 30.12 0.616001 30.648 0.616001L33.192 0.616002C33.72 0.616002 34.1387 0.776002 34.448 1.096C34.7627 1.416 34.92 1.85067 34.92 2.4C34.92 2.94934 34.7627 3.384 34.448 3.704C34.1387 4.024 33.72 4.184 33.192 4.184L30.648 4.184C30.3013 4.184 29.9973 4.10933 29.736 3.96C29.48 3.816 29.28 3.61067 29.136 3.344C28.992 3.07733 28.92 2.76267 28.92 2.4ZM29.6 2.4C29.6 2.70933 29.696 2.95733 29.888 3.144C30.0853 3.33067 30.3387 3.424 30.648 3.424L33.192 3.424C33.5013 3.424 33.752 3.33067 33.944 3.144C34.1413 2.95733 34.24 2.70933 34.24 2.4C34.24 2.09067 34.1413 1.84267 33.944 1.656C33.752 1.46933 33.5013 1.376 33.192 1.376L30.648 1.376C30.3387 1.376 30.0853 1.46933 29.888 1.656C29.696 1.84267 29.6 2.09067 29.6 2.4ZM31.472 2.4C31.472 2.25067 31.512 2.13067 31.592 2.04C31.6773 1.95467 31.7947 1.912 31.944 1.912C32.0933 1.912 32.2053 1.95467 32.28 2.04C32.36 2.13067 32.4 2.25067 32.4 2.4C32.4 2.54933 32.36 2.66933 32.28 2.76C32.2053 2.85067 32.0933 2.896 31.944 2.896C31.7947 2.896 31.6773 2.85067 31.592 2.76C31.512 2.66933 31.472 2.54933 31.472 2.4Z" fill="#A8A8A8"/>
<path d="M28.92 44.2C28.92 43.6507 29.0747 43.216 29.384 42.896C29.6987 42.576 30.12 42.416 30.648 42.416L33.192 42.416C33.72 42.416 34.1387 42.576 34.448 42.896C34.7627 43.216 34.92 43.6507 34.92 44.2C34.92 44.7493 34.7627 45.184 34.448 45.504C34.1387 45.824 33.72 45.984 33.192 45.984L30.648 45.984C30.3013 45.984 29.9973 45.9093 29.736 45.76C29.48 45.616 29.28 45.4107 29.136 45.144C28.992 44.8773 28.92 44.5627 28.92 44.2ZM29.6 44.2C29.6 44.5093 29.696 44.7573 29.888 44.944C30.0853 45.1307 30.3387 45.224 30.648 45.224L33.192 45.224C33.5013 45.224 33.752 45.1307 33.944 44.944C34.1413 44.7573 34.24 44.5093 34.24 44.2C34.24 43.8907 34.1413 43.6427 33.944 43.456C33.752 43.2693 33.5013 43.176 33.192 43.176L30.648 43.176C30.3387 43.176 30.0853 43.2693 29.888 43.456C29.696 43.6427 29.6 43.8907 29.6 44.2ZM31.472 44.2C31.472 44.0507 31.512 43.9307 31.592 43.84C31.6773 43.7547 31.7947 43.712 31.944 43.712C32.0933 43.712 32.2053 43.7547 32.28 43.84C32.36 43.9307 32.4 44.0507 32.4 44.2C32.4 44.3493 32.36 44.4693 32.28 44.56C32.2053 44.6507 32.0933 44.696 31.944 44.696C31.7947 44.696 31.6773 44.6507 31.592 44.56C31.512 44.4693 31.472 44.3493 31.472 44.2ZM28.92 48.8369C28.92 48.6342 28.9813 48.4689 29.104 48.3409C29.2267 48.2182 29.384 48.1569 29.576 48.1569C29.7787 48.1569 29.944 48.2182 30.072 48.3409C30.2 48.4689 30.264 48.6342 30.264 48.8369C30.264 49.0395 30.2 49.2022 30.072 49.3249C29.944 49.4529 29.7787 49.5169 29.576 49.5169C29.384 49.5169 29.2267 49.4529 29.104 49.3249C28.9813 49.2022 28.92 49.0395 28.92 48.8369ZM29 51.7857L29.72 51.7857L29.72 53.3457L34.128 53.3457L32.96 51.7777L33.856 51.7777L34.84 53.1057L34.84 54.1377L29.72 54.1377L29.72 55.4177L29 55.4177L29 51.7857Z" fill="#A8A8A8"/>
<path d="M28.92 96C28.92 95.4507 29.0747 95.016 29.384 94.696C29.6987 94.376 30.12 94.216 30.648 94.216L33.192 94.216C33.72 94.216 34.1387 94.376 34.448 94.696C34.7627 95.016 34.92 95.4507 34.92 96C34.92 96.5493 34.7627 96.984 34.448 97.304C34.1387 97.624 33.72 97.784 33.192 97.784L30.648 97.784C30.3013 97.784 29.9973 97.7093 29.736 97.56C29.48 97.416 29.28 97.2107 29.136 96.944C28.992 96.6773 28.92 96.3627 28.92 96ZM29.6 96C29.6 96.3093 29.696 96.5573 29.888 96.744C30.0853 96.9307 30.3387 97.024 30.648 97.024L33.192 97.024C33.5013 97.024 33.752 96.9307 33.944 96.744C34.1413 96.5573 34.24 96.3093 34.24 96C34.24 95.6907 34.1413 95.4427 33.944 95.256C33.752 95.0693 33.5013 94.976 33.192 94.976L30.648 94.976C30.3387 94.976 30.0853 95.0693 29.888 95.256C29.696 95.4427 29.6 95.6907 29.6 96ZM31.472 96C31.472 95.8507 31.512 95.7307 31.592 95.64C31.6773 95.5547 31.7947 95.512 31.944 95.512C32.0933 95.512 32.2053 95.5547 32.28 95.64C32.36 95.7307 32.4 95.8507 32.4 96C32.4 96.1493 32.36 96.2693 32.28 96.36C32.2053 96.4507 32.0933 96.496 31.944 96.496C31.7947 96.496 31.6773 96.4507 31.592 96.36C31.512 96.2693 31.472 96.1493 31.472 96ZM28.92 100.637C28.92 100.434 28.9813 100.269 29.104 100.141C29.2267 100.018 29.384 99.9569 29.576 99.9569C29.7787 99.9569 29.944 100.018 30.072 100.141C30.2 100.269 30.264 100.434 30.264 100.637C30.264 100.84 30.2 101.002 30.072 101.125C29.944 101.253 29.7787 101.317 29.576 101.317C29.384 101.317 29.2267 101.253 29.104 101.125C28.9813 101.002 28.92 100.84 28.92 100.637ZM29 103.538L29.728 103.538L31.824 105.522C32.0907 105.778 32.3333 105.959 32.552 106.066C32.776 106.178 32.9947 106.234 33.208 106.234C33.512 106.234 33.7547 106.146 33.936 105.97C34.1227 105.794 34.216 105.556 34.216 105.258C34.216 104.948 34.1227 104.703 33.936 104.522C33.7493 104.34 33.496 104.25 33.176 104.25L33.176 103.458C33.7093 103.468 34.1333 103.636 34.448 103.962C34.7627 104.292 34.92 104.724 34.92 105.258C34.92 105.802 34.7653 106.234 34.456 106.554C34.1467 106.879 33.7333 107.042 33.216 107.042C32.9333 107.042 32.6373 106.967 32.328 106.818C32.024 106.668 31.688 106.415 31.32 106.058L29.72 104.506L29.72 107.114L29 107.114L29 103.538Z" fill="#A8A8A8"/>
<path d="M28.92 147.8C28.92 147.251 29.0747 146.816 29.384 146.496C29.6987 146.176 30.12 146.016 30.648 146.016L33.192 146.016C33.72 146.016 34.1387 146.176 34.448 146.496C34.7627 146.816 34.92 147.251 34.92 147.8C34.92 148.349 34.7627 148.784 34.448 149.104C34.1387 149.424 33.72 149.584 33.192 149.584L30.648 149.584C30.3013 149.584 29.9973 149.509 29.736 149.36C29.48 149.216 29.28 149.011 29.136 148.744C28.992 148.477 28.92 148.163 28.92 147.8ZM29.6 147.8C29.6 148.109 29.696 148.357 29.888 148.544C30.0853 148.731 30.3387 148.824 30.648 148.824L33.192 148.824C33.5013 148.824 33.752 148.731 33.944 148.544C34.1413 148.357 34.24 148.109 34.24 147.8C34.24 147.491 34.1413 147.243 33.944 147.056C33.752 146.869 33.5013 146.776 33.192 146.776L30.648 146.776C30.3387 146.776 30.0853 146.869 29.888 147.056C29.696 147.243 29.6 147.491 29.6 147.8ZM31.472 147.8C31.472 147.651 31.512 147.531 31.592 147.44C31.6773 147.355 31.7947 147.312 31.944 147.312C32.0933 147.312 32.2053 147.355 32.28 147.44C32.36 147.531 32.4 147.651 32.4 147.8C32.4 147.949 32.36 148.069 32.28 148.16C32.2053 148.251 32.0933 148.296 31.944 148.296C31.7947 148.296 31.6773 148.251 31.592 148.16C31.512 148.069 31.472 147.949 31.472 147.8ZM28.92 152.437C28.92 152.234 28.9813 152.069 29.104 151.941C29.2267 151.818 29.384 151.757 29.576 151.757C29.7787 151.757 29.944 151.818 30.072 151.941C30.2 152.069 30.264 152.234 30.264 152.437C30.264 152.64 30.2 152.802 30.072 152.925C29.944 153.053 29.7787 153.117 29.576 153.117C29.384 153.117 29.2267 153.053 29.104 152.925C28.9813 152.802 28.92 152.64 28.92 152.437ZM28.92 156.994C28.92 156.444 29.0693 156.01 29.368 155.69C29.672 155.37 30.0827 155.21 30.6 155.21L30.6 156.002C30.296 156.002 30.056 156.09 29.88 156.266C29.7093 156.447 29.624 156.692 29.624 157.002C29.624 157.306 29.7093 157.548 29.88 157.73C30.056 157.911 30.296 158.002 30.6 158.002L31.008 158.002C31.312 158.002 31.552 157.911 31.728 157.73C31.9093 157.554 32 157.311 32 157.002L32 156.346L32.664 156.346L34.128 157.754L34.128 155.386L34.84 155.386L34.84 158.642L34.12 158.642L32.68 157.25C32.6373 157.724 32.4667 158.1 32.168 158.378C31.8747 158.655 31.488 158.794 31.008 158.794L30.6 158.794C30.0827 158.794 29.672 158.631 29.368 158.306C29.0693 157.986 28.92 157.548 28.92 156.994Z" fill="#A8A8A8"/>
<path d="M28.92 199.6C28.92 199.051 29.0747 198.616 29.384 198.296C29.6987 197.976 30.12 197.816 30.648 197.816L33.192 197.816C33.72 197.816 34.1387 197.976 34.448 198.296C34.7627 198.616 34.92 199.051 34.92 199.6C34.92 200.149 34.7627 200.584 34.448 200.904C34.1387 201.224 33.72 201.384 33.192 201.384L30.648 201.384C30.3013 201.384 29.9973 201.309 29.736 201.16C29.48 201.016 29.28 200.811 29.136 200.544C28.992 200.277 28.92 199.963 28.92 199.6ZM29.6 199.6C29.6 199.909 29.696 200.157 29.888 200.344C30.0853 200.531 30.3387 200.624 30.648 200.624L33.192 200.624C33.5013 200.624 33.752 200.531 33.944 200.344C34.1413 200.157 34.24 199.909 34.24 199.6C34.24 199.291 34.1413 199.043 33.944 198.856C33.752 198.669 33.5013 198.576 33.192 198.576L30.648 198.576C30.3387 198.576 30.0853 198.669 29.888 198.856C29.696 199.043 29.6 199.291 29.6 199.6ZM31.472 199.6C31.472 199.451 31.512 199.331 31.592 199.24C31.6773 199.155 31.7947 199.112 31.944 199.112C32.0933 199.112 32.2053 199.155 32.28 199.24C32.36 199.331 32.4 199.451 32.4 199.6C32.4 199.749 32.36 199.869 32.28 199.96C32.2053 200.051 32.0933 200.096 31.944 200.096C31.7947 200.096 31.6773 200.051 31.592 199.96C31.512 199.869 31.472 199.749 31.472 199.6ZM28.92 204.237C28.92 204.034 28.9813 203.869 29.104 203.741C29.2267 203.618 29.384 203.557 29.576 203.557C29.7787 203.557 29.944 203.618 30.072 203.741C30.2 203.869 30.264 204.034 30.264 204.237C30.264 204.44 30.2 204.602 30.072 204.725C29.944 204.853 29.7787 204.917 29.576 204.917C29.384 204.917 29.2267 204.853 29.104 204.725C28.9813 204.602 28.92 204.44 28.92 204.237ZM29 209.642L30.248 209.642L30.248 207.01L31.456 207.01L34.84 209.146L34.84 210.042L31.272 207.794L30.96 207.794L30.96 209.642L32.36 209.642L32.36 210.434L29 210.434L29 209.642Z" fill="#A8A8A8"/>
<path d="M28.92 251.4C28.92 250.851 29.0747 250.416 29.384 250.096C29.6987 249.776 30.12 249.616 30.648 249.616L33.192 249.616C33.72 249.616 34.1387 249.776 34.448 250.096C34.7627 250.416 34.92 250.851 34.92 251.4C34.92 251.949 34.7627 252.384 34.448 252.704C34.1387 253.024 33.72 253.184 33.192 253.184L30.648 253.184C30.3013 253.184 29.9973 253.109 29.736 252.96C29.48 252.816 29.28 252.611 29.136 252.344C28.992 252.077 28.92 251.763 28.92 251.4ZM29.6 251.4C29.6 251.709 29.696 251.957 29.888 252.144C30.0853 252.331 30.3387 252.424 30.648 252.424L33.192 252.424C33.5013 252.424 33.752 252.331 33.944 252.144C34.1413 251.957 34.24 251.709 34.24 251.4C34.24 251.091 34.1413 250.843 33.944 250.656C33.752 250.469 33.5013 250.376 33.192 250.376L30.648 250.376C30.3387 250.376 30.0853 250.469 29.888 250.656C29.696 250.843 29.6 251.091 29.6 251.4ZM31.472 251.4C31.472 251.251 31.512 251.131 31.592 251.04C31.6773 250.955 31.7947 250.912 31.944 250.912C32.0933 250.912 32.2053 250.955 32.28 251.04C32.36 251.131 32.4 251.251 32.4 251.4C32.4 251.549 32.36 251.669 32.28 251.76C32.2053 251.851 32.0933 251.896 31.944 251.896C31.7947 251.896 31.6773 251.851 31.592 251.76C31.512 251.669 31.472 251.549 31.472 251.4ZM28.92 256.037C28.92 255.834 28.9813 255.669 29.104 255.541C29.2267 255.418 29.384 255.357 29.576 255.357C29.7787 255.357 29.944 255.418 30.072 255.541C30.2 255.669 30.264 255.834 30.264 256.037C30.264 256.24 30.2 256.402 30.072 256.525C29.944 256.653 29.7787 256.717 29.576 256.717C29.384 256.717 29.2267 256.653 29.104 256.525C28.9813 256.402 28.92 256.24 28.92 256.037ZM28.92 260.634C28.92 260.084 29.0693 259.65 29.368 259.33C29.672 259.01 30.0827 258.85 30.6 258.85L30.6 259.642C30.296 259.642 30.056 259.73 29.88 259.906C29.7093 260.087 29.624 260.33 29.624 260.634C29.624 260.943 29.712 261.186 29.888 261.362C30.064 261.543 30.304 261.634 30.608 261.634L30.976 261.634C31.28 261.634 31.52 261.546 31.696 261.37C31.872 261.199 31.96 260.964 31.96 260.666L31.96 259.05L34.84 259.05L34.84 262.218L34.12 262.218L34.12 259.786L32.672 259.802L32.672 260.706C32.672 261.25 32.5227 261.671 32.224 261.97C31.9307 262.274 31.5147 262.426 30.976 262.426L30.608 262.426C30.0853 262.426 29.672 262.263 29.368 261.938C29.0693 261.618 28.92 261.183 28.92 260.634Z" fill="#A8A8A8"/>
<rect opacity="0.1" x="21" y="9.17939e-07" width="72" height="8" rx="2" transform="rotate(90 21 9.17939e-07)" fill="#727272"/>
<rect opacity="0.1" x="21" y="74" width="190" height="8" rx="2" transform="rotate(90 21 74)" fill="#727272"/>
<rect opacity="0.1" x="8.00002" y="-1.55766e-06" width="190" height="8" rx="2" transform="rotate(90 8.00002 -1.55766e-06)" fill="#727272"/>
<rect opacity="0.1" x="8" y="192" width="72" height="8" rx="2" transform="rotate(90 8 192)" fill="#727272"/>
</svg>
