<svg width="8" height="7" viewBox="0 0 8 7" fill="none" xmlns="http://www.w3.org/2000/svg">
<path d="M1.3281 6.03126H6.87333C7.57649 6.03126 7.94271 5.67676 7.94271 4.9994V1.1474C7.94271 0.470044 7.57649 0.11554 6.87333 0.11554H1.3281C0.628063 0.11554 0.261841 0.466879 0.261841 1.1474V4.9994C0.261841 5.67676 0.628063 6.03126 1.3281 6.03126ZM1.37026 5.40137C1.07198 5.40137 0.906788 5.24946 0.906788 4.94243V1.20437C0.906788 0.897339 1.07198 0.745425 1.37026 0.745425H2.84803V5.40137H1.37026ZM6.83117 0.745425C7.12906 0.745425 7.29461 0.897339 7.29461 1.20437V4.94243C7.29461 5.24946 7.12906 5.40137 6.83117 5.40137H3.46061V0.745425H6.83117ZM2.21281 1.90385C2.32954 1.90385 2.42676 1.80573 2.42676 1.69813C2.42676 1.59052 2.32954 1.49554 2.21281 1.49554H1.5483C1.43195 1.49554 1.33474 1.59052 1.33474 1.69813C1.33474 1.80573 1.43195 1.90385 1.5483 1.90385H2.21281ZM2.21281 2.75531C2.32954 2.75531 2.42676 2.66033 2.42676 2.54956C2.42676 2.44195 2.32954 2.347 2.21281 2.347H1.5483C1.43195 2.347 1.33474 2.44195 1.33474 2.54956C1.33474 2.66033 1.43195 2.75531 1.5483 2.75531H2.21281ZM2.21281 3.60357C2.32954 3.60357 2.42676 3.51175 2.42676 3.40098C2.42676 3.29338 2.32954 3.2016 2.21281 3.2016H1.5483C1.43195 3.2016 1.33474 3.29338 1.33474 3.40098C1.33474 3.51175 1.43195 3.60357 1.5483 3.60357H2.21281Z" fill="#717171"/>
</svg>
