<svg width="5" height="6" viewBox="0 0 5 6" fill="none" xmlns="http://www.w3.org/2000/svg">
<path d="M2.82574 2.68266C2.89212 2.68266 2.94445 2.66256 2.98583 2.62012L3.92363 1.69735C3.97399 1.6482 3.99702 1.59459 3.99702 1.53201C3.99702 1.47169 3.97165 1.41362 3.92363 1.36893L2.98583 0.437274C2.94445 0.392584 2.89212 0.370239 2.82574 0.370239C2.70198 0.370239 2.6036 0.470753 2.6036 0.593649C2.6036 0.653973 2.62664 0.703123 2.66568 0.745563L3.21229 1.26838C3.10492 1.25274 2.99481 1.24382 2.8851 1.24382C1.75286 1.24382 0.84668 2.12857 0.84668 3.23674C0.84668 4.34494 1.7595 5.2364 2.89213 5.2364C4.02671 5.2364 4.93718 4.34494 4.93718 3.23674C4.93718 3.10271 4.84113 3.00662 4.7037 3.00662C4.57095 3.00662 4.48194 3.10271 4.48194 3.23674C4.48194 4.09918 3.77489 4.7918 2.89213 4.7918C2.01133 4.7918 1.30192 4.09918 1.30192 3.23674C1.30192 2.36762 2.0043 1.67951 2.8851 1.67951C3.03386 1.67951 3.17127 1.69068 3.29231 1.71077L2.66763 2.31401C2.62664 2.35423 2.6036 2.40338 2.6036 2.46371C2.6036 2.5866 2.70198 2.68266 2.82574 2.68266Z" fill="#787878"/>
</svg>
