<svg width="953" height="30" viewBox="0 0 953 30" fill="none" xmlns="http://www.w3.org/2000/svg">
<g clip-path="url(#clip0_490_5317)">
<line y1="-0.5" x2="71.1688" y2="-0.5" transform="matrix(-0.733255 -0.679953 -0.222164 -0.975009 746.474 45.8003)" stroke="#D9D9D9"/>
<line y1="-0.5" x2="71.1688" y2="-0.5" transform="matrix(-0.733255 -0.679953 -0.222164 -0.975009 755.185 45.9858)" stroke="#D9D9D9"/>
<line y1="-0.5" x2="71.1688" y2="-0.5" transform="matrix(-0.733255 -0.679953 -0.222164 -0.975009 763.896 46.1714)" stroke="#D9D9D9"/>
<line y1="-0.5" x2="71.1688" y2="-0.5" transform="matrix(-0.733255 -0.679953 -0.222164 -0.975009 772.607 46.3569)" stroke="#D9D9D9"/>
<line y1="-0.5" x2="71.1688" y2="-0.5" transform="matrix(-0.733255 -0.679953 -0.222164 -0.975009 781.318 46.5425)" stroke="#D9D9D9"/>
<line y1="-0.5" x2="71.1688" y2="-0.5" transform="matrix(-0.733255 -0.679953 -0.222164 -0.975009 790.029 46.728)" stroke="#D9D9D9"/>
<line y1="-0.5" x2="71.1688" y2="-0.5" transform="matrix(-0.733255 -0.679953 -0.222164 -0.975009 798.74 46.9136)" stroke="#D9D9D9"/>
<line y1="-0.5" x2="71.1688" y2="-0.5" transform="matrix(-0.733255 -0.679953 -0.222164 -0.975009 807.451 47.0991)" stroke="#D9D9D9"/>
<line y1="-0.5" x2="71.1688" y2="-0.5" transform="matrix(-0.733255 -0.679953 -0.222164 -0.975009 816.161 47.2847)" stroke="#D9D9D9"/>
<line y1="-0.5" x2="71.1688" y2="-0.5" transform="matrix(-0.733255 -0.679953 -0.222164 -0.975009 824.872 47.4702)" stroke="#D9D9D9"/>
<line y1="-0.5" x2="71.1688" y2="-0.5" transform="matrix(-0.733255 -0.679953 -0.222164 -0.975009 833.583 47.6558)" stroke="#D9D9D9"/>
<line y1="-0.5" x2="71.1688" y2="-0.5" transform="matrix(-0.733255 -0.679953 -0.222164 -0.975009 842.294 47.8413)" stroke="#D9D9D9"/>
<line y1="-0.5" x2="71.1688" y2="-0.5" transform="matrix(-0.733255 -0.679953 -0.222164 -0.975009 851.005 48.0269)" stroke="#D9D9D9"/>
<line y1="-0.5" x2="71.1688" y2="-0.5" transform="matrix(-0.733255 -0.679953 -0.222164 -0.975009 859.716 47.5945)" stroke="#D9D9D9"/>
<line y1="-0.5" x2="71.1688" y2="-0.5" transform="matrix(-0.733255 -0.679953 -0.222164 -0.975009 868.427 47.5945)" stroke="#D9D9D9"/>
<line y1="-0.5" x2="71.1688" y2="-0.5" transform="matrix(-0.733255 -0.679953 -0.222164 -0.975009 877.138 47.5945)" stroke="#D9D9D9"/>
<line y1="-0.5" x2="71.1688" y2="-0.5" transform="matrix(-0.733255 -0.679953 -0.222164 -0.975009 885.849 47.5945)" stroke="#D9D9D9"/>
<line y1="-0.5" x2="71.1688" y2="-0.5" transform="matrix(-0.733255 -0.679953 -0.222164 -0.975009 894.56 47.5945)" stroke="#D9D9D9"/>
<line y1="-0.5" x2="71.1688" y2="-0.5" transform="matrix(-0.733255 -0.679953 -0.222164 -0.975009 903.271 47.5945)" stroke="#D9D9D9"/>
<line y1="-0.5" x2="71.1688" y2="-0.5" transform="matrix(-0.733255 -0.679953 -0.222164 -0.975009 911.982 47.5945)" stroke="#D9D9D9"/>
<line y1="-0.5" x2="71.1688" y2="-0.5" transform="matrix(-0.733255 -0.679953 -0.222164 -0.975009 920.693 47.5945)" stroke="#D9D9D9"/>
<line y1="-0.5" x2="71.1688" y2="-0.5" transform="matrix(-0.733255 -0.679953 -0.222164 -0.975009 929.404 47.5945)" stroke="#D9D9D9"/>
<line y1="-0.5" x2="71.1688" y2="-0.5" transform="matrix(-0.733255 -0.679953 -0.222164 -0.975009 938.115 47.5945)" stroke="#D9D9D9"/>
<line y1="-0.5" x2="71.1688" y2="-0.5" transform="matrix(-0.733255 -0.679953 -0.222164 -0.975009 946.826 47.5945)" stroke="#D9D9D9"/>
<line y1="-0.5" x2="71.1688" y2="-0.5" transform="matrix(-0.733255 -0.679953 -0.222164 -0.975009 955.536 47.5945)" stroke="#D9D9D9"/>
<line y1="-0.5" x2="71.1688" y2="-0.5" transform="matrix(-0.733255 -0.679953 -0.222164 -0.975009 964.185 46.9858)" stroke="#D9D9D9"/>
<line y1="-0.5" x2="71.1688" y2="-0.5" transform="matrix(-0.733255 -0.679953 -0.222164 -0.975009 972.833 46.3772)" stroke="#D9D9D9"/>
<line y1="-0.5" x2="71.1688" y2="-0.5" transform="matrix(-0.733255 -0.679953 -0.222164 -0.975009 981.482 45.7686)" stroke="#D9D9D9"/>
<line y1="-0.5" x2="71.1688" y2="-0.5" transform="matrix(-0.733255 -0.679953 -0.222164 -0.975009 990.13 45.1599)" stroke="#D9D9D9"/>
<line y1="-0.5" x2="71.1688" y2="-0.5" transform="matrix(-0.733255 -0.679953 -0.222164 -0.975009 998.779 44.5513)" stroke="#D9D9D9"/>
<line y1="-0.5" x2="71.1688" y2="-0.5" transform="matrix(-0.733255 -0.679953 -0.222164 -0.975009 737.289 45.8003)" stroke="#D9D9D9"/>
<line y1="-0.5" x2="71.1688" y2="-0.5" transform="matrix(-0.733255 -0.679953 -0.222164 -0.975009 728.104 45.8003)" stroke="#D9D9D9"/>
<line y1="-0.5" x2="71.1688" y2="-0.5" transform="matrix(-0.733255 -0.679953 -0.222164 -0.975009 718.92 45.8003)" stroke="#D9D9D9"/>
<line y1="-0.5" x2="71.1688" y2="-0.5" transform="matrix(-0.733255 -0.679953 -0.222164 -0.975009 709.735 45.8003)" stroke="#D9D9D9"/>
<line y1="-0.5" x2="71.1688" y2="-0.5" transform="matrix(-0.733255 -0.679953 -0.222164 -0.975009 700.55 45.8003)" stroke="#D9D9D9"/>
<line y1="-0.5" x2="71.1688" y2="-0.5" transform="matrix(-0.733255 -0.679953 -0.222164 -0.975009 691.365 45.8003)" stroke="#D9D9D9"/>
<line y1="-0.5" x2="71.1688" y2="-0.5" transform="matrix(-0.733255 -0.679953 -0.222164 -0.975009 682.18 45.8003)" stroke="#D9D9D9"/>
<line y1="-0.5" x2="71.1688" y2="-0.5" transform="matrix(-0.733255 -0.679953 -0.222164 -0.975009 672.995 45.8003)" stroke="#D9D9D9"/>
<line y1="-0.5" x2="71.1688" y2="-0.5" transform="matrix(-0.733255 -0.679953 -0.222164 -0.975009 663.811 45.8003)" stroke="#D9D9D9"/>
<line y1="-0.5" x2="71.1688" y2="-0.5" transform="matrix(-0.733255 -0.679953 -0.222164 -0.975009 654.626 45.8003)" stroke="#D9D9D9"/>
<line y1="-0.5" x2="71.1688" y2="-0.5" transform="matrix(-0.733255 -0.679953 -0.222164 -0.975009 645.441 45.8003)" stroke="#D9D9D9"/>
<line y1="-0.5" x2="71.1688" y2="-0.5" transform="matrix(-0.733255 -0.679953 -0.222164 -0.975009 636.256 45.8003)" stroke="#D9D9D9"/>
<line y1="-0.5" x2="71.1688" y2="-0.5" transform="matrix(-0.733255 -0.679953 -0.222164 -0.975009 627.071 45.8003)" stroke="#D9D9D9"/>
<line y1="-0.5" x2="71.1688" y2="-0.5" transform="matrix(-0.733255 -0.679953 -0.222164 -0.975009 617.887 45.8003)" stroke="#D9D9D9"/>
<line y1="-0.5" x2="71.1688" y2="-0.5" transform="matrix(-0.733255 -0.679953 -0.222164 -0.975009 608.702 45.8003)" stroke="#D9D9D9"/>
<line y1="-0.5" x2="71.1688" y2="-0.5" transform="matrix(-0.733255 -0.679953 -0.222164 -0.975009 599.517 45.8003)" stroke="#D9D9D9"/>
<line y1="-0.5" x2="71.1688" y2="-0.5" transform="matrix(-0.733255 -0.679953 -0.222164 -0.975009 590.332 45.8003)" stroke="#D9D9D9"/>
<line y1="-0.5" x2="71.1688" y2="-0.5" transform="matrix(-0.733255 -0.679953 -0.222164 -0.975009 581.147 45.8003)" stroke="#D9D9D9"/>
<line y1="-0.5" x2="71.1688" y2="-0.5" transform="matrix(-0.733255 -0.679953 -0.222164 -0.975009 571.963 45.8003)" stroke="#D9D9D9"/>
<line y1="-0.5" x2="71.1688" y2="-0.5" transform="matrix(-0.733255 -0.679953 -0.222164 -0.975009 562.778 45.8003)" stroke="#D9D9D9"/>
<line y1="-0.5" x2="71.1688" y2="-0.5" transform="matrix(-0.733255 -0.679953 -0.222164 -0.975009 553.593 45.8003)" stroke="#D9D9D9"/>
<line y1="-0.5" x2="71.1688" y2="-0.5" transform="matrix(-0.733255 -0.679953 -0.222164 -0.975009 544.408 45.8003)" stroke="#D9D9D9"/>
<line y1="-0.5" x2="71.1688" y2="-0.5" transform="matrix(-0.733255 -0.679953 -0.222164 -0.975009 535.223 45.8003)" stroke="#D9D9D9"/>
<line y1="-0.5" x2="71.1688" y2="-0.5" transform="matrix(-0.733255 -0.679953 -0.222164 -0.975009 526.038 45.8003)" stroke="#D9D9D9"/>
<line y1="-0.5" x2="71.1688" y2="-0.5" transform="matrix(-0.733255 -0.679953 -0.222164 -0.975009 516.854 45.8003)" stroke="#D9D9D9"/>
<line y1="-0.5" x2="71.1688" y2="-0.5" transform="matrix(-0.733255 -0.679953 -0.222164 -0.975009 507.669 45.8003)" stroke="#D9D9D9"/>
<line y1="-0.5" x2="71.1688" y2="-0.5" transform="matrix(-0.733255 -0.679953 -0.222164 -0.975009 498.484 45.8003)" stroke="#D9D9D9"/>
<line y1="-0.5" x2="71.1688" y2="-0.5" transform="matrix(-0.733255 -0.679953 -0.222164 -0.975009 489.299 45.8003)" stroke="#D9D9D9"/>
<line y1="-0.5" x2="71.1688" y2="-0.5" transform="matrix(-0.733255 -0.679953 -0.222164 -0.975009 480.114 45.8003)" stroke="#D9D9D9"/>
<line y1="-0.5" x2="71.1688" y2="-0.5" transform="matrix(-0.733255 -0.679953 -0.222164 -0.975009 470.93 45.8003)" stroke="#D9D9D9"/>
<line y1="-0.5" x2="71.1688" y2="-0.5" transform="matrix(-0.733255 -0.679953 -0.222164 -0.975009 461.745 45.8003)" stroke="#D9D9D9"/>
<line y1="-0.5" x2="71.1688" y2="-0.5" transform="matrix(-0.733255 -0.679953 -0.222164 -0.975009 452.56 45.8003)" stroke="#D9D9D9"/>
<line y1="-0.5" x2="71.1688" y2="-0.5" transform="matrix(-0.733255 -0.679953 -0.222164 -0.975009 443.375 45.8003)" stroke="#D9D9D9"/>
<line y1="-0.5" x2="71.1688" y2="-0.5" transform="matrix(-0.733255 -0.679953 -0.222164 -0.975009 434.19 45.8003)" stroke="#D9D9D9"/>
<line y1="-0.5" x2="71.1688" y2="-0.5" transform="matrix(-0.733255 -0.679953 -0.222164 -0.975009 425.005 45.8003)" stroke="#D9D9D9"/>
<line y1="-0.5" x2="71.1688" y2="-0.5" transform="matrix(-0.733255 -0.679953 -0.222164 -0.975009 415.821 45.8003)" stroke="#D9D9D9"/>
<line y1="-0.5" x2="71.1688" y2="-0.5" transform="matrix(-0.733255 -0.679953 -0.222164 -0.975009 406.636 45.8003)" stroke="#D9D9D9"/>
<line y1="-0.5" x2="71.1688" y2="-0.5" transform="matrix(-0.733255 -0.679953 -0.222164 -0.975009 397.451 45.8003)" stroke="#D9D9D9"/>
<line y1="-0.5" x2="71.1688" y2="-0.5" transform="matrix(-0.733255 -0.679953 -0.222164 -0.975009 388.266 45.8003)" stroke="#D9D9D9"/>
<line y1="-0.5" x2="71.1688" y2="-0.5" transform="matrix(-0.733255 -0.679953 -0.222164 -0.975009 379.081 45.8003)" stroke="#D9D9D9"/>
<line y1="-0.5" x2="71.1688" y2="-0.5" transform="matrix(-0.733255 -0.679953 -0.222164 -0.975009 369.897 45.8003)" stroke="#D9D9D9"/>
<line y1="-0.5" x2="71.1688" y2="-0.5" transform="matrix(-0.733255 -0.679953 -0.222164 -0.975009 360.712 45.8003)" stroke="#D9D9D9"/>
<line y1="-0.5" x2="71.1688" y2="-0.5" transform="matrix(-0.733255 -0.679953 -0.222164 -0.975009 351.527 45.8003)" stroke="#D9D9D9"/>
<line y1="-0.5" x2="71.1688" y2="-0.5" transform="matrix(-0.733255 -0.679953 -0.222164 -0.975009 342.342 45.8003)" stroke="#D9D9D9"/>
<line y1="-0.5" x2="71.1688" y2="-0.5" transform="matrix(-0.733255 -0.679953 -0.222164 -0.975009 333.157 45.8003)" stroke="#D9D9D9"/>
<line y1="-0.5" x2="71.1688" y2="-0.5" transform="matrix(-0.733255 -0.679953 -0.222164 -0.975009 323.973 45.8003)" stroke="#D9D9D9"/>
<line y1="-0.5" x2="71.1688" y2="-0.5" transform="matrix(-0.733255 -0.679953 -0.222164 -0.975009 314.788 45.8003)" stroke="#D9D9D9"/>
<line y1="-0.5" x2="71.1688" y2="-0.5" transform="matrix(-0.733255 -0.679953 -0.222164 -0.975009 305.603 45.8003)" stroke="#D9D9D9"/>
<line y1="-0.5" x2="71.1688" y2="-0.5" transform="matrix(-0.733255 -0.679953 -0.222164 -0.975009 296.418 45.8003)" stroke="#D9D9D9"/>
<line y1="-0.5" x2="71.1688" y2="-0.5" transform="matrix(-0.733255 -0.679953 -0.222164 -0.975009 287.233 45.8003)" stroke="#D9D9D9"/>
<line y1="-0.5" x2="71.1688" y2="-0.5" transform="matrix(-0.733255 -0.679953 -0.222164 -0.975009 278.048 45.8003)" stroke="#D9D9D9"/>
<line y1="-0.5" x2="71.1688" y2="-0.5" transform="matrix(-0.733255 -0.679953 -0.222164 -0.975009 268.864 45.8003)" stroke="#D9D9D9"/>
<line y1="-0.5" x2="71.1688" y2="-0.5" transform="matrix(-0.733255 -0.679953 -0.222164 -0.975009 259.679 45.8003)" stroke="#D9D9D9"/>
<line y1="-0.5" x2="71.1688" y2="-0.5" transform="matrix(-0.733255 -0.679953 -0.222164 -0.975009 250.494 45.8003)" stroke="#D9D9D9"/>
<line y1="-0.5" x2="71.1688" y2="-0.5" transform="matrix(-0.733255 -0.679953 -0.222164 -0.975009 241.309 45.8003)" stroke="#D9D9D9"/>
<line y1="-0.5" x2="71.1688" y2="-0.5" transform="matrix(-0.733255 -0.679953 -0.222164 -0.975009 232.124 45.8003)" stroke="#D9D9D9"/>
<line y1="-0.5" x2="71.1688" y2="-0.5" transform="matrix(-0.733255 -0.679953 -0.222164 -0.975009 222.94 45.8003)" stroke="#D9D9D9"/>
<line y1="-0.5" x2="71.1688" y2="-0.5" transform="matrix(-0.733255 -0.679953 -0.222164 -0.975009 213.755 45.8003)" stroke="#D9D9D9"/>
<line y1="-0.5" x2="71.1688" y2="-0.5" transform="matrix(-0.733255 -0.679953 -0.222164 -0.975009 204.57 45.8003)" stroke="#D9D9D9"/>
<line y1="-0.5" x2="71.1688" y2="-0.5" transform="matrix(-0.733255 -0.679953 -0.222164 -0.975009 195.385 45.8003)" stroke="#D9D9D9"/>
<line y1="-0.5" x2="71.1688" y2="-0.5" transform="matrix(-0.733255 -0.679953 -0.222164 -0.975009 186.2 45.8003)" stroke="#D9D9D9"/>
<line y1="-0.5" x2="71.1688" y2="-0.5" transform="matrix(-0.733255 -0.679953 -0.222164 -0.975009 177.016 45.8003)" stroke="#D9D9D9"/>
<line y1="-0.5" x2="71.1688" y2="-0.5" transform="matrix(-0.733255 -0.679953 -0.222164 -0.975009 167.831 45.8003)" stroke="#D9D9D9"/>
<line y1="-0.5" x2="71.1688" y2="-0.5" transform="matrix(-0.733255 -0.679953 -0.222164 -0.975009 158.646 45.8003)" stroke="#D9D9D9"/>
<line y1="-0.5" x2="71.1688" y2="-0.5" transform="matrix(-0.733255 -0.679953 -0.222164 -0.975009 149.461 45.8003)" stroke="#D9D9D9"/>
<line y1="-0.5" x2="71.1688" y2="-0.5" transform="matrix(-0.733255 -0.679953 -0.222164 -0.975009 140.185 45.9858)" stroke="#D9D9D9"/>
<line y1="-0.5" x2="71.1688" y2="-0.5" transform="matrix(-0.733255 -0.679953 -0.222164 -0.975009 130.909 46.1714)" stroke="#D9D9D9"/>
<line y1="-0.5" x2="71.1688" y2="-0.5" transform="matrix(-0.733255 -0.679953 -0.222164 -0.975009 121.633 46.3569)" stroke="#D9D9D9"/>
<line y1="-0.5" x2="71.1688" y2="-0.5" transform="matrix(-0.733255 -0.679953 -0.222164 -0.975009 112.357 46.5425)" stroke="#D9D9D9"/>
<line y1="-0.5" x2="71.1688" y2="-0.5" transform="matrix(-0.733255 -0.679953 -0.222164 -0.975009 103.08 46.728)" stroke="#D9D9D9"/>
<line y1="-0.5" x2="71.1688" y2="-0.5" transform="matrix(-0.733255 -0.679953 -0.222164 -0.975009 93.8043 46.9136)" stroke="#D9D9D9"/>
<line y1="-0.5" x2="71.1688" y2="-0.5" transform="matrix(-0.733255 -0.679953 -0.222164 -0.975009 84.5282 47.0991)" stroke="#D9D9D9"/>
<line y1="-0.5" x2="71.1688" y2="-0.5" transform="matrix(-0.733255 -0.679953 -0.222164 -0.975009 75.2521 47.2847)" stroke="#D9D9D9"/>
<line y1="-0.5" x2="71.1688" y2="-0.5" transform="matrix(-0.733255 -0.679953 -0.222164 -0.975009 65.976 47.4702)" stroke="#D9D9D9"/>
<line y1="-0.5" x2="71.1688" y2="-0.5" transform="matrix(-0.733255 -0.679953 -0.222164 -0.975009 56.6998 47.6558)" stroke="#D9D9D9"/>
<line y1="-0.5" x2="71.1688" y2="-0.5" transform="matrix(-0.733255 -0.679953 -0.222164 -0.975009 47.4237 47.8413)" stroke="#D9D9D9"/>
<line y1="-0.5" x2="71.1688" y2="-0.5" transform="matrix(-0.733255 -0.679953 -0.222164 -0.975009 38.1476 48.0269)" stroke="#D9D9D9"/>
<line y1="-0.5" x2="71.1688" y2="-0.5" transform="matrix(-0.733255 -0.679953 -0.222164 -0.975009 28.8715 48.2124)" stroke="#D9D9D9"/>
<line y1="-0.5" x2="71.1688" y2="-0.5" transform="matrix(-0.733255 -0.679953 -0.222164 -0.975009 19.5953 48.3979)" stroke="#D9D9D9"/>
<line y1="-0.5" x2="71.1688" y2="-0.5" transform="matrix(-0.733255 -0.679953 -0.222164 -0.975009 10.3192 48.5835)" stroke="#D9D9D9"/>
<line y1="-0.5" x2="71.1688" y2="-0.5" transform="matrix(-0.733255 -0.679953 -0.222164 -0.975009 1.04309 48.769)" stroke="#D9D9D9"/>
</g>
<defs>
<clipPath id="clip0_490_5317">
<rect width="29" height="953" fill="white" transform="translate(953 0.594482) rotate(90)"/>
</clipPath>
</defs>
</svg>
