<svg width="49" height="232" viewBox="0 0 49 232" fill="none" xmlns="http://www.w3.org/2000/svg">
<g clip-path="url(#clip0_490_5179)">
<line y1="-0.5" x2="71.1688" y2="-0.5" transform="matrix(0.679953 -0.733255 0.975009 -0.222164 -9.15527e-05 278.633)" stroke="#D9D9D9"/>
<line y1="-0.5" x2="71.1688" y2="-0.5" transform="matrix(0.679953 -0.733255 0.975009 -0.222164 -9.15527e-05 269.779)" stroke="#D9D9D9"/>
<line y1="-0.5" x2="71.1688" y2="-0.5" transform="matrix(0.679953 -0.733255 0.975009 -0.222164 -9.15527e-05 261.263)" stroke="#D9D9D9"/>
<line y1="-0.5" x2="71.1688" y2="-0.5" transform="matrix(0.679953 -0.733255 0.975009 -0.222164 -9.15527e-05 252.078)" stroke="#D9D9D9"/>
<line y1="-0.5" x2="71.1688" y2="-0.5" transform="matrix(0.679953 -0.733255 0.975009 -0.222164 -9.15527e-05 242.894)" stroke="#D9D9D9"/>
<line y1="-0.5" x2="71.1688" y2="-0.5" transform="matrix(0.679953 -0.733255 0.975009 -0.222164 -9.15527e-05 233.709)" stroke="#D9D9D9"/>
<line y1="-0.5" x2="71.1688" y2="-0.5" transform="matrix(0.679953 -0.733255 0.975009 -0.222164 -9.15527e-05 224.524)" stroke="#D9D9D9"/>
<line y1="-0.5" x2="71.1688" y2="-0.5" transform="matrix(0.679953 -0.733255 0.975009 -0.222164 -9.15527e-05 215.339)" stroke="#D9D9D9"/>
<line y1="-0.5" x2="71.1688" y2="-0.5" transform="matrix(0.679953 -0.733255 0.975009 -0.222164 -9.15527e-05 206.154)" stroke="#D9D9D9"/>
<line y1="-0.5" x2="71.1688" y2="-0.5" transform="matrix(0.679953 -0.733255 0.975009 -0.222164 -9.15527e-05 196.969)" stroke="#D9D9D9"/>
<line y1="-0.5" x2="71.1688" y2="-0.5" transform="matrix(0.679953 -0.733255 0.975009 -0.222164 -9.15527e-05 187.785)" stroke="#D9D9D9"/>
<line y1="-0.5" x2="71.1688" y2="-0.5" transform="matrix(0.679953 -0.733255 0.975009 -0.222164 -9.15527e-05 178.6)" stroke="#D9D9D9"/>
<line y1="-0.5" x2="71.1688" y2="-0.5" transform="matrix(0.679953 -0.733255 0.975009 -0.222164 -9.15527e-05 169.415)" stroke="#D9D9D9"/>
<line y1="-0.5" x2="71.1688" y2="-0.5" transform="matrix(0.679953 -0.733255 0.975009 -0.222164 -9.15527e-05 160.23)" stroke="#D9D9D9"/>
<line y1="-0.5" x2="71.1688" y2="-0.5" transform="matrix(0.679953 -0.733255 0.975009 -0.222164 -9.15527e-05 151.045)" stroke="#D9D9D9"/>
<line y1="-0.5" x2="71.1688" y2="-0.5" transform="matrix(0.679953 -0.733255 0.975009 -0.222164 -9.15527e-05 141.861)" stroke="#D9D9D9"/>
<line y1="-0.5" x2="71.1688" y2="-0.5" transform="matrix(0.679953 -0.733255 0.975009 -0.222164 -9.15527e-05 132.676)" stroke="#D9D9D9"/>
<line y1="-0.5" x2="71.1688" y2="-0.5" transform="matrix(0.679953 -0.733255 0.975009 -0.222164 -9.15527e-05 123.491)" stroke="#D9D9D9"/>
<line y1="-0.5" x2="71.1688" y2="-0.5" transform="matrix(0.679953 -0.733255 0.975009 -0.222164 -9.15527e-05 114.306)" stroke="#D9D9D9"/>
<line y1="-0.5" x2="71.1688" y2="-0.5" transform="matrix(0.679953 -0.733255 0.975009 -0.222164 -9.15527e-05 105.121)" stroke="#D9D9D9"/>
<line y1="-0.5" x2="71.1688" y2="-0.5" transform="matrix(0.679953 -0.733255 0.975009 -0.222164 -9.15527e-05 95.9365)" stroke="#D9D9D9"/>
<line y1="-0.5" x2="71.1688" y2="-0.5" transform="matrix(0.679953 -0.733255 0.975009 -0.222164 -9.15527e-05 86.7517)" stroke="#D9D9D9"/>
<line y1="-0.5" x2="71.1688" y2="-0.5" transform="matrix(0.679953 -0.733255 0.975009 -0.222164 -9.15527e-05 77.5669)" stroke="#D9D9D9"/>
<line y1="-0.5" x2="71.1688" y2="-0.5" transform="matrix(0.679953 -0.733255 0.975009 -0.222164 -9.15527e-05 68.3821)" stroke="#D9D9D9"/>
<line y1="-0.5" x2="71.1688" y2="-0.5" transform="matrix(0.679953 -0.733255 0.975009 -0.222164 -9.15527e-05 59.1973)" stroke="#D9D9D9"/>
<line y1="-0.5" x2="71.1688" y2="-0.5" transform="matrix(0.679953 -0.733255 0.975009 -0.222164 -9.15527e-05 50.0125)" stroke="#D9D9D9"/>
<line y1="-0.5" x2="71.1688" y2="-0.5" transform="matrix(0.679953 -0.733255 0.975009 -0.222164 -9.15527e-05 40.8276)" stroke="#D9D9D9"/>
<line y1="-0.5" x2="71.1688" y2="-0.5" transform="matrix(0.679953 -0.733255 0.975009 -0.222164 -9.15527e-05 31.6428)" stroke="#D9D9D9"/>
<line y1="-0.5" x2="71.1688" y2="-0.5" transform="matrix(0.679953 -0.733255 0.975009 -0.222164 -9.15527e-05 22.458)" stroke="#D9D9D9"/>
<line y1="-0.5" x2="71.1688" y2="-0.5" transform="matrix(0.679953 -0.733255 0.975009 -0.222164 -9.15527e-05 13.2732)" stroke="#D9D9D9"/>
<line y1="-0.5" x2="71.1688" y2="-0.5" transform="matrix(0.679953 -0.733255 0.975009 -0.222164 -9.15527e-05 4.08838)" stroke="#D9D9D9"/>
</g>
<path d="M48 1.59436L48 230.594" stroke="#D9D9D9" stroke-width="1.5" stroke-linecap="round" stroke-dasharray="2 6"/>
<defs>
<clipPath id="clip0_490_5179">
<rect width="48.0001" height="229" fill="white" transform="translate(48 230.594) rotate(-180)"/>
</clipPath>
</defs>
</svg>
