<svg width="7" height="9" viewBox="0 0 7 9" fill="none" xmlns="http://www.w3.org/2000/svg">
<path d="M3.46116 5.6898C3.62514 5.6898 3.7618 5.55699 3.7618 5.3989V2.21759L3.73835 1.74957L3.93747 1.98041L4.39038 2.4516C4.44114 2.50853 4.51532 2.53697 4.58951 2.53697C4.73787 2.53697 4.86279 2.43261 4.86279 2.28397C4.86279 2.20493 4.82765 2.148 4.77299 2.09423L3.6915 1.07282C3.61342 0.996899 3.53925 0.971619 3.46116 0.971619C3.37918 0.971619 3.30891 0.996899 3.23083 1.07282L2.14543 2.09423C2.08686 2.148 2.05564 2.20493 2.05564 2.28397C2.05564 2.43261 2.17665 2.53697 2.32501 2.53697C2.39919 2.53697 2.47728 2.50853 2.52804 2.4516L2.98095 1.98041L3.18398 1.7464L3.15662 2.21759V5.3989C3.15662 5.55699 3.29328 5.6898 3.46116 5.6898ZM1.59491 8.21651H5.3196C6.02237 8.21651 6.38546 7.86231 6.38546 7.1856V4.07701C6.38546 3.4003 6.02237 3.0461 5.3196 3.0461H4.44896V3.67541H5.28057C5.57339 3.67541 5.74125 3.82721 5.74125 4.13077V7.12867C5.74125 7.43227 5.57339 7.58403 5.28057 7.58403H1.63394C1.33722 7.58403 1.17327 7.43227 1.17327 7.12867V4.13077C1.17327 3.82721 1.33722 3.67541 1.63394 3.67541H2.47728V3.0461H1.59491C0.896047 3.0461 0.529053 3.39713 0.529053 4.07701V7.1856C0.529053 7.86231 0.896047 8.21651 1.59491 8.21651Z" fill="#717171"/>
</svg>
