<svg width="6" height="8" viewBox="0 0 6 8" fill="none" xmlns="http://www.w3.org/2000/svg">
<path d="M2.89766 7.21652C2.95584 7.21652 3.04291 7.19742 3.12372 7.15281C4.9845 6.1558 5.63065 5.69392 5.63065 4.53443V2.12947C5.63065 1.7472 5.47879 1.61024 5.15551 1.47327C4.7971 1.32357 3.59224 0.909465 3.24007 0.791602C3.13349 0.75656 3.00737 0.734253 2.89766 0.734253C2.78756 0.734253 2.66185 0.762928 2.55527 0.791602C2.2031 0.890323 0.997846 1.32673 0.639434 1.47327C0.31655 1.60703 0.164673 1.7472 0.164673 2.12947V4.53443C0.164673 5.69392 0.81396 6.14943 2.6681 7.15281C2.75204 7.19742 2.83949 7.21652 2.89766 7.21652ZM3.0718 1.37771C3.49502 1.54335 4.41604 1.86507 4.90056 2.03391C4.99075 2.06891 5.01339 2.11673 5.01339 2.23139V4.41656C5.01339 5.3499 4.53863 5.60152 3.08156 6.46797C2.99137 6.52212 2.94609 6.54122 2.9008 6.54122V1.34267C2.94609 1.34267 2.9945 1.3522 3.0718 1.37771Z" fill="#717171"/>
</svg>
