<svg width="6" height="6" viewBox="0 0 6 6" fill="none" xmlns="http://www.w3.org/2000/svg">
<path d="M3.12221 5.45388C3.32914 5.45388 3.4931 5.29079 3.4931 5.10575V3.14227H5.48432C5.68734 3.14227 5.8552 2.98231 5.8552 2.78471C5.8552 2.59024 5.68734 2.42716 5.48432 2.42716H3.4931V0.463676C3.4931 0.275499 3.32914 0.11554 3.12221 0.11554C2.91919 0.11554 2.75133 0.275499 2.75133 0.463676V2.42716H0.760108C0.564894 2.42716 0.389221 2.59024 0.389221 2.78471C0.389221 2.98231 0.564894 3.14227 0.760108 3.14227H2.75133V5.10575C2.75133 5.29079 2.91919 5.45388 3.12221 5.45388Z" fill="#717171"/>
</svg>
